<?xml version="1.0" standalone="no"?>
<!DOCTYPE svg PUBLIC "-//W3C//DTD SVG 1.1//EN" "http://www.w3.org/Graphics/SVG/1.1/DTD/svg11.dtd" >
<svg xmlns="http://www.w3.org/2000/svg">
<metadata>
Created by FontForge 20120731 at Thu Jan 12 11:11:38 2017
 By admin
</metadata>
<defs>
<font id="iconfont" horiz-adv-x="1024" >
  <font-face 
    font-family="iconfont"
    font-weight="500"
    font-stretch="normal"
    units-per-em="1024"
    panose-1="2 0 6 3 0 0 0 0 0 0"
    ascent="896"
    descent="-128"
    x-height="792"
    bbox="-0.097561 -224.098 1340 896.286"
    underline-thickness="0"
    underline-position="0"
    unicode-range="U+0078-E718"
  />
<missing-glyph 
 />
    <glyph glyph-name=".notdef" 
 />
    <glyph glyph-name=".notdef" 
 />
    <glyph glyph-name=".null" horiz-adv-x="0" 
 />
    <glyph glyph-name="nonmarkingreturn" horiz-adv-x="341" 
 />
    <glyph glyph-name="x" unicode="x" horiz-adv-x="1001" 
d="M281 543q-27 -1 -53 -1h-83q-18 0 -36.5 -6t-32.5 -18.5t-23 -32t-9 -45.5v-76h912v41q0 16 -0.5 30t-0.5 18q0 13 -5 29t-17 29.5t-31.5 22.5t-49.5 9h-133v-97h-438v97zM955 310v-52q0 -23 0.5 -52t0.5 -58t-10.5 -47.5t-26 -30t-33 -16t-31.5 -4.5q-14 -1 -29.5 -0.5
t-29.5 0.5h-32l-45 128h-439l-44 -128h-29h-34q-20 0 -45 1q-25 0 -41 9.5t-25.5 23t-13.5 29.5t-4 30v167h911zM163 247q-12 0 -21 -8.5t-9 -21.5t9 -21.5t21 -8.5q13 0 22 8.5t9 21.5t-9 21.5t-22 8.5zM316 123q-8 -26 -14 -48q-5 -19 -10.5 -37t-7.5 -25t-3 -15t1 -14.5
t9.5 -10.5t21.5 -4h37h67h81h80h64h36q23 0 34 12t2 38q-5 13 -9.5 30.5t-9.5 34.5q-5 19 -11 39h-368zM336 498v228q0 11 2.5 23t10 21.5t20.5 15.5t34 6h188q31 0 51.5 -14.5t20.5 -52.5v-227h-327z" />
    <glyph glyph-name="shipin1" unicode="&#xe635;" horiz-adv-x="1000" 
d="M882 -83l-91 33v-15q0 -30 -21.5 -51.5t-51.5 -21.5h-584q-30 0 -51.5 21.5t-21.5 51.5v365q0 30 21.5 51.5t51.5 21.5h12q-39 28 -62 71t-23 93q0 83 59 142t142 59q50 0 93 -23t71 -62q28 39 71 62t93 23q83 0 142 -59t59 -142q0 -50 -23 -93t-63 -71h13
q30 0 51.5 -21.5t21.5 -51.5v-15l91 33q30 0 42.5 -12t12.5 -42v-292q0 -30 -12.5 -42.5t-42.5 -12.5zM389 537q0 53 -37 90.5t-90 37.5t-90.5 -37.5t-37.5 -90.5t37.5 -90t90.5 -37t90 37t37 90v0v0zM590 665q-53 0 -90.5 -37.5t-37.5 -90.5t37.5 -90t90.5 -37t90.5 37
t37.5 90t-37.5 90.5t-90.5 37.5zM426 422q-20 -28 -49 -49h98q-29 21 -49 49zM736 245q0 31 -21.5 52t-51.5 21h-474q-31 0 -52 -21t-21 -52v-255q0 -30 21 -51.5t52 -21.5h474q30 0 51.5 21.5t21.5 51.5v255v0zM882 209q0 15 -10.5 25.5t-26.5 10.5l-54 -31v-193l54 -31
q16 0 26.5 10.5t10.5 26.5v182z" />
    <glyph glyph-name="gouwuche" unicode="&#xe629;" 
d="M339 35q19 0 36 -7t30 -19.5t20 -29.5t7 -36t-7 -36t-20 -29.5t-30 -20t-36 -7.5q-20 0 -36.5 7.5t-29.5 20t-20 29.5t-7 36t7 36t20 29.5t29.5 19.5t36.5 7zM755 33q19 0 36.5 -7t30 -19.5t20 -29.5t7.5 -36t-7.5 -36t-20 -29.5t-30 -20t-36.5 -7.5t-36 7.5t-29.5 20
t-20 29.5t-7.5 36t7.5 36t20 29.5t29.5 19.5t36 7zM923 601q28 0 43.5 -7.5t22 -18.5t6 -23.5t-3.5 -21.5t-12.5 -37t-21.5 -61.5t-23.5 -66.5t-17.5 -52q-13 -40 -33 -55.5t-49 -15.5h-525l15 -90h504q48 0 48 -41q0 -20 -9.5 -34.5t-37.5 -14.5h-524q-20 0 -33.5 9
t-22.5 23.5t-14.5 31.5t-8.5 32q-1 6 -5.5 29t-11 57.5t-14.5 77t-16 85.5q-19 101 -43 225h-75q-15 0 -25 7.5t-16.5 18t-9 22.5t-2.5 22q0 20 13.5 33t36.5 13h101q20 0 32 -6t19 -15t10 -19t5 -17q2 -8 4 -22.5t4 -29.5q3 -18 6 -38h684v0z" />
    <glyph glyph-name="fangdajing" unicode="&#xe622;" 
d="M899 -67l-196 197q71 88 71 202q0 87 -43.5 161.5t-117.5 117.5t-161.5 43t-161.5 -43t-117.5 -117.5t-43.5 -162t43.5 -161.5t117.5 -117t162 -43q117 0 206 75l197 -196zM451.5 64q-110.5 0 -189 78.5t-78.5 189.5t78.5 189t189 78t189 -78.5t78.5 -189t-78.5 -189
t-189 -78.5z" />
    <glyph glyph-name="wifi" unicode="&#xe63a;" 
d="M1006 347q0 -26 -18.5 -44t-43.5 -18q-24 0 -41 16l-3 3q-60 107 -165 175.5t-227 68.5q-115 0 -216 -65.5t-164 -166.5q-3 -6 -8 -13q-1 -1 -2 -3.5t-2 -3.5l1 3q-20 -21 -46 -21t-44 18.5t-18 43.5q0 36 13 49l1 1l-1 -1q148 286 486 286q118 0 208 -34.5t157.5 -100.5
t130.5 -175q3 -5 3 -9.5t-1 -6.5v-2zM504 414q94 0 173 -47.5t129 -125.5q2 -3 7.5 -10t7.5 -10t5 -8.5t4 -10.5t1 -11q0 -26 -18 -44t-44 -18q-17 0 -33 10l-5 4q-3 3 -9 10q-1 2 -13 23q-32 54 -86.5 86.5t-119 32.5t-119 -32t-86.5 -86q-3 -5 -5.5 -10t-6 -12.5
t-6.5 -13.5l-1 -2l-2 -1l-4 -4q-16 -12 -36 -12q-25 0 -43 18.5t-18 43.5q0 27 19 47q53 84 133 133.5t176 49.5zM501 168q49 0 83.5 -34.5t34.5 -84t-34.5 -84t-83.5 -34.5t-84 34.5t-35 84t35 84t84 34.5z" />
    <glyph glyph-name="minusround" unicode="&#xe632;" 
d="M835 352h-646q-25 0 -43 -18.5t-18 -45.5t18 -45.5t43 -18.5h646q25 0 43 18.5t18 45.5t-18 45.5t-43 18.5z" />
    <glyph glyph-name="luxian" unicode="&#xe600;" 
d="M901 596q-31 0 -53 -22t-22 -53q0 -14 6 -28l-220 -205q-19 12 -41 12q-12 0 -23 -3l-70 88q8 16 8 34q0 31 -22 53t-52.5 22t-52.5 -22t-22 -53q0 -5 1 -11l-177 -139q-18 11 -40 11q-31 0 -52.5 -21.5t-21.5 -52.5t21.5 -53t52.5 -22t52.5 22t21.5 53q0 11 -3 22
l172 134l1 -1q20 -16 47 -16q14 0 28 5l67 -85q-11 -18 -11 -39q0 -31 22 -53t52.5 -22t52.5 22t22 53q0 10 -3 20l225 209q16 -8 34 -8q31 0 52.5 21.5t21.5 52.5t-21.5 53t-52.5 22zM121.5 183q-9.5 0 -16.5 6.5t-7 16t7 16.5t16.5 7t16 -7t6.5 -16.5t-6.5 -16t-16 -6.5z
M397 401q-8 7 -8 18q0 10 6.5 16.5t16 6.5t16.5 -6.5t7 -16t-7 -16.5v0q-8 -6 -17 -6t-14 4zM570.5 203q-9.5 0 -16 6.5t-6.5 16.5q0 11 8 17l1 1l1 1q5 4 13 4q9 0 15.5 -7t6.5 -16.5t-6.5 -16t-16 -6.5zM900.5 498q-9.5 0 -16 7t-6.5 16.5t6.5 16t16 6.5t16.5 -6.5t7 -16
t-7 -16.5t-16.5 -7z" />
    <glyph glyph-name="jiahao" unicode="&#xe623;" 
d="M813 753h-604q-63 0 -107 -44.5t-44 -106.5v-604q0 -62 44 -106.5t107 -44.5h604q62 0 106.5 44.5t44.5 106.5v604q0 62 -44.5 106.5t-106.5 44.5zM780 242h-215v-196q0 -23 -16.5 -39t-39 -16t-39 16t-16.5 39v196h-215q-24 0 -41 17t-17 41t17 41t41 17h215v198
q0 23 16.5 39t39 16t39 -16t16.5 -39v-198h215q24 0 41 -17t17 -41t-17 -41t-41 -17z" />
    <glyph glyph-name="fabiaojidi" unicode="&#xe694;" 
d="M584 187q-38 30 -79 45.5t-75.5 16t-67.5 -6.5t-58.5 -20t-45 -25t-30 -21l-10.5 -9v493q2 4 6 10.5t18 23t30 30t42.5 26.5t55.5 17t69 -3.5t82 -30.5q58 -30 96.5 -48.5t81 -33.5t73 -18t63.5 2t63 22.5t61 46.5v-581q-8 -3 -21.5 -8t-56.5 -12t-85 -4.5t-101 24.5
t-111 64zM117 -194h-14q-16 0 -27.5 11.5t-11.5 27.5v805q0 16 11.5 27.5t27.5 11.5h14q16 0 27.5 -11.5t11.5 -27.5v-805q0 -16 -11.5 -27.5t-27.5 -11.5z" />
    <glyph glyph-name="tousu" unicode="&#xe601;" 
d="M906 399q-22 0 -37.5 -16t-15.5 -38v-380q0 -10 -11 -10h-666q-10 0 -10 10v666q0 10 10 10h381q22 0 37.5 15.5t15.5 37.5t-15.5 38t-37.5 16h-381q-48 0 -82 -34.5t-34 -82.5v-666q0 -48 34 -82.5t82 -34.5h666q49 0 83 34.5t34 82.5v380q0 22 -15.5 38t-37.5 16z
M313 250v-95q0 -22 15.5 -37.5t38.5 -15.5h95q22 0 37 15l431 431q34 35 34 83t-34 82l-5 6q-33 33 -82.5 33t-82.5 -33l-431 -431q-16 -16 -16 -38zM850 644l5 -6q7 -7 0 -14l-2 -2l-20 20l2 2q7 7 15 0zM420 228l338 338l20 -19l-338 -339h-20v20z" />
    <glyph glyph-name="tingchechang" unicode="&#xe62a;" 
d="M363 293v352h163q98 0 137 -49t39 -137q0 -41 -8 -69.5t-28 -51.5t-57 -34t-92 -11h-154zM158 812v-1023h204v327h218q62 6 102.5 15t84.5 29q46 27 72 61t39.5 90.5t16.5 147.5q0 4 -1 14q-1 33 -2 49.5t-5 45.5t-10 46t-17.5 42t-28 43.5t-41 39.5t-56.5 41
q-66 32 -163 32h-413z" />
    <glyph glyph-name="wuliurenyuan" unicode="&#xe602;" 
d="M644 419q-86 -132 -107 -163q-3 -5 2 -8q1 0 2 -1q43 -31 122 -88q41 -29 18 -73q-39 -74 -92 -176q-7 -14 -21.5 -21.5t-29.5 -5.5q-36 6 -42 43q-3 15 6 33q67 127 70 133q4 8 -3 12q-65 45 -128 90q-7 5 -12 -2q-10 -12 -35.5 -44.5t-39.5 -50.5q-17 -22 -45 -21
q-45 1 -151 6q-41 2 -50 2q-20 2 -33 17t-12 36q1 20 16 33.5t35 12.5q71 -2 163 -7q12 0 19 9q22 28 74 93q15 19 29.5 41t32 49.5t27.5 42.5q12 19 34.5 53.5t29.5 44.5q3 4 2.5 6.5t-6.5 3.5q-34 6 -69 15q-11 2 -21 -6q-50 -42 -105 -86q-19 -15 -40 -9.5t-29 26.5
q-10 28 15 49q20 17 101 83q6 5 19.5 16t20.5 17q19 16 44 10q26 -5 80 -16.5t82 -17.5q24 -5 56 -40q14 -15 45 -68q36 -65 50 -90q4 -7 13 -7q42 -1 136 -4q19 0 31.5 -12.5t12 -30.5t-13.5 -30.5t-31 -11.5q-72 1 -188 5q-23 0 -35 22q-2 4 -44 78q-1 1 -1.5 2.5t-1.5 3
t-2 2.5zM815 640q0 -35 -24.5 -59.5t-58.5 -24.5q-35 0 -59.5 25t-24.5 61q0 33 24.5 57.5t58.5 24.5q35 0 59.5 -24.5t24.5 -59.5z" />
    <glyph glyph-name="jiangbei" unicode="&#xe603;" 
d="M810 677q-3 -1 -8 -1.5t-8 -0.5q-11 -1 -15 4.5t-3 17.5q3 34 -5 42t-43 9h-218h-223q-55 -1 -43 -48q5 -18 -2 -24t-24 -2q-31 7 -58 0q-57 -15 -82 -67.5t-5 -117.5q43 -140 173 -182q47 -15 67 -53q38 -72 111 -99l28.5 -9.5t17.5 -9t11.5 -9.5t4.5 -14t3 -19v-28
q-1 -41 -9 -49t-48 -10q-100 -5 -130 -88q-13 -34 -2 -51t47 -17q80 -1 297 0q31 0 50 3q44 6 32 50q-11 40 -42 67.5t-71 33.5q-23 3 -32.5 4.5t-21 7t-14 7.5t-6 15.5t-4 21.5t-1.5 33q-2 25 7 37.5t33 17.5q83 17 124 93q15 27 35.5 42t52.5 27q140 51 169 207
q13 73 -29 118.5t-116 40.5zM243 357q-57 21 -93 72.5t-37 113.5q0 38 22 64.5t54 27.5q31 1 54.5 -23t27.5 -60q11 -133 13 -167q2 -27 -6.5 -32.5t-34.5 4.5zM595 -40q37 -1 61 -24q16 -16 13 -26q-4 -13 -26 -13h-133v0h-129q-22 1 -26 12t12 27q25 23 57 24h171z
M719 648q-28 -154 -27 -275q1 -74 -46.5 -128t-116.5 -59q-80 -5 -136.5 40.5t-63.5 124.5q-2 27 -5.5 78t-6 83t-7.5 76t-11 81q-4 19 5.5 25.5t29.5 6.5h176v0h167q32 0 40 -10.5t2 -42.5zM909 532q-13 -111 -117 -170q-31 -17 -42 -11t-11 42v35h-1q10 119 12 128
q5 37 32 60t58 17q36 -6 55 -34t14 -67z" />
    <glyph glyph-name="canyin" unicode="&#xe62c;" 
d="M667 4q19 153 20 166q4 58 6 176q1 34 -29 65q-42 43 -56.5 110t2 133.5t60.5 108.5q54 53 106 1q77 -78 68 -200q-7 -102 -71 -164q-25 -24 -23 -85q4 -99 14 -181q7 -55 10 -87.5t1.5 -80t-10.5 -87.5q-6 -27 -17 -49q-10 -21 -25 -21.5t-24 20.5q-14 33 -26 92
q0 5 -6 83zM214 626v-118q0 -1 8 -17q1 2 3 5t3.5 6t1.5 5q3 58 9 221l1 16q1 2 12 19q1 -2 3.5 -6t4 -7t1.5 -6q1 -36 2 -112t2 -115q0 -4 1.5 -8t4 -9.5t3.5 -8.5q8 25 8 26q0 27 3 220q1 12 1 13q1 1 11 13q1 -1 3.5 -4t4.5 -5.5t2 -4.5q2 -27 4 -69q1 -32 3 -91t2 -73
q0 -13 1 -16q0 -1 8 -9q9 9 9 10q1 2 1 21q-3 211 -3 214v10.5t9 16.5q1 -2 4.5 -5.5t5.5 -6t2 -4.5q3 -30 9 -122q1 -19 3.5 -59t3.5 -60q4 -58 -27 -86q-46 -40 -42 -118q5 -97 18 -196q19 -141 -3 -232q-7 -28 -22 -53q-8 -14 -19.5 -14t-19.5 14q-16 28 -23 58
q-19 88 -3 217q12 95 19 213q4 71 -41 110q-29 26 -27 70q7 135 15 256q0 3 2 6t5 6.5t4 5.5q1 -2 4 -6t4.5 -7.5t1.5 -6.5v-117h-1zM543 516q-1 -24 -1 -74t-2 -88.5t-7 -72.5q-11 -51 -2.5 -165.5t3.5 -164.5q-3 -31 -17 -105q-2 -11 -11 -25q-8 -12 -17 -12t-16 12
q-13 23 -19 51q-21 97 -3 240q2 12 13 125q0 7 -1 8q-12 13 -16.5 31.5t-3 34.5t-1.5 34q-13 109 -15 201q-1 70 11 169q7 62 60 76q24 6 38.5 -5t14.5 -35q-1 -8 -9 -235h1z" />
    <glyph glyph-name="jingdian" unicode="&#xe669;" 
d="M865 -87h-50q4 12 4 23v182v45q0 10 -6.5 16.5t-16 6.5t-16 -6.5t-6.5 -16.5v-45v-182q0 -14 -7.5 -18.5t-23.5 -4.5h-15h-432h-15q-16 0 -23.5 4.5t-7.5 18.5v182v45q0 10 -6.5 16.5t-16 6.5t-16 -6.5t-6.5 -16.5v-45v-182q0 -11 4 -23h-50q-9 0 -15.5 -6.5t-6.5 -16
t6.5 -16t15.5 -6.5h114h478h114q9 0 15.5 6.5t6.5 16t-6.5 16t-15.5 6.5zM523 232q19 0 32.5 13t13.5 32v23q0 19 -13.5 32.5t-32.5 13.5h-22q-19 0 -32.5 -13.5t-13.5 -32.5v-23q0 -19 13.5 -32t32.5 -13h22zM484 624h26v-9h-26v9zM112 252zM92 252.5q0 8.5 6 14.5t14.5 6
t14.5 -6t6 -14.5t-6 -14.5t-14.5 -6t-14.5 6t-6 14.5zM912 252zM891 252.5q0 8.5 6 14.5t14.5 6t14.5 -6t6 -14.5t-6 -14.5t-14.5 -6t-14.5 6t-6 14.5zM32 254v0q-4 0 -7.5 -3t-3.5 -8t3.5 -8t7.5 -3v22zM950 254q-4 0 -7.5 -3t-3.5 -8t3.5 -8t7.5 -3v22zM512 732
q-14 0 -24 -10t-10 -24v-45l-376 -376h-34h-12v-45h56l18 9l116 114v0l263 258q2 1 3 3v0v0v116v0zM969 277h-13h-34l-376 376v45q0 14 -10 24t-24 10v0v-116v0h1q0 -2 2 -3l263 -258v0l116 -114l18 -9h57v45z" />
    <glyph glyph-name="shipin2" unicode="&#xe637;" 
d="M929 562q-247 -197 -267 -222v191q0 16 -11 27t-27 11h-524q-15 0 -26 -11t-11 -27v-462q0 -16 11 -27t26 -11h524q16 0 27 11t11 27v189q9 -10 76 -66t129 -107t62 -50h14t9 2t5.5 3t2.5 6.5t1 8v11.5v15v430v14.5v12.5t-1 9t-2.5 7.5t-5 4t-9 3t-14.5 0.5z" />
    <glyph glyph-name="zliconregister01" unicode="&#xe642;" 
d="M521 800q-104 2 -199.5 -37t-165.5 -106.5t-112 -161.5t-44 -198t37 -199.5t106.5 -165.5t161.5 -112t198 -44t199.5 37t165.5 106.5t112 161.5t44 198t-37 199.5t-106.5 165.5t-161.5 112t-198 44zM312 418q7 53 46 91q38 36 91 43q26 3 54 -4q47 -11 80 -49t37 -87
q2 -18 0 -34q-6 -43 -33 -77q-13 -16 -29 -28q-29 -21 -64 -28q-69 -12 -125 32q-16 12 -28 28q-25 35 -30 78q-1 17 1 35zM644 75q-8 -15 -38 -27.5t-74 -18.5q-103 -13 -188 12q-31 8 -50 21q-12 9 -17 19q-2 4 -2 12q1 34 29 63.5t74 43.5q27 9 56 11h12q4 1 22.5 0
t25.5 -2q48 -6 83 -26q61 -34 69 -87q1 -14 -2 -21zM817 208l-5 -2l-69 1l-1 -34q-1 -34 -2 -37q-5 -13 -17 -19q-5 -2 -13 -2t-13 2q-12 7 -16 20q-1 3 -1 37v34l-69 2l-5 2q-9 5 -14 13q-7 13 -0.5 28t22.5 17q4 1 36 0h32v31q1 30 1 35q2 9 9 16.5t16 9.5q13 2 24 -6
t12 -21q1 -6 1 -35l-1 -31l32 -1q32 0 36 -1q14 -3 21 -17q6 -12 1.5 -24t-17.5 -18z" />
    <glyph glyph-name="reli" unicode="&#xe604;" 
d="M477 630q25 -34 28.5 -63.5t-5.5 -46t-16.5 -36.5t-2.5 -35q5 -13 16.5 -19t25.5 -8.5t29 -8t30 -22t24 -46.5q8 -33 0 -57.5t-26.5 -48.5t-37.5 -42t-31.5 -38.5t-8.5 -38.5q4 -21 20.5 -34t34 -18.5t31.5 -18.5t14 -34q0 -30 -10 -58q44 42 51 69q4 18 -5 30.5t-22 19
t-24.5 21.5t-11.5 37t9 34.5t21 17.5t30 17.5t31 30.5q12 18 8.5 32.5t-11.5 32.5t-16 34t-5.5 39t20.5 47q-8 -32 1 -55.5t27 -38t37 -27.5t33.5 -31t14.5 -41q0 -24 -7.5 -35.5t-17.5 -14t-22 -15t-18 -36.5q-6 -19 -2.5 -34t10.5 -23t13.5 -20t8 -25.5t-8.5 -39.5
q-9 -25 -36 -43t-63 -27.5t-61.5 -13.5t-50.5 -6q-3 -1 -12 -1q-24 0 -59 4.5t-78 13.5t-77.5 28.5t-44.5 45.5q-9 23 -8 40t8 25.5t14 20t10.5 23t-2.5 34.5q-7 23 -14 36.5t-11 17t-6.5 15.5t-2.5 37q0 22 11 40t25.5 29t28 27.5t19 36t-1.5 54.5q18 -23 22 -46t-2 -39.5
t-11.5 -35t-8 -32.5t10.5 -33q13 -18 28.5 -30t24.5 -16.5t15.5 -17t6.5 -35.5q0 -21 -11.5 -36t-24.5 -22t-21.5 -19.5t-4.5 -29.5q5 -21 32 -50q-1 22 10 65q9 31 30 60t40 46.5t32.5 42t9.5 49.5q-4 21 -21 34t-36.5 19t-38.5 19t-26 32t1 59q8 34 24.5 64t31 46t28 36
t16.5 35.5t-4 44.5zM420 768l21 -150q5 -21 0.5 -31.5t-25.5 -36.5q-45 -56 -63 -104l-110 144l43 -179q3 -12 3 -21.5t-1 -16t-6.5 -13.5t-9.5 -11.5t-14 -12.5q-17 -15 -26 -25t-19 -32t-10 -47q0 -31 4.5 -47t14.5 -30q10 -13 17 -39q2 -12 1 -16t-8 -14
q-8 -11 -12 -18.5t-9 -22t-3 -33.5t10 -42q9 -23 30.5 -42t47 -30.5t57 -20.5t57 -13.5t51.5 -7t36.5 -2.5h15.5h17q35 3 67 9.5t69.5 18.5t66 34.5t39.5 52.5q9 22 11 41t-3 34t-9 22.5t-12 17.5t-9 14.5t2 16.5q4 13 7.5 17.5t12.5 8.5q13 8 22 15.5t16.5 25.5t7.5 44
q1 20 -5.5 37t-19 31t-21.5 21.5t-25 18.5q-31 22 -40 36t-3 40l43 178l-111 -146q-12 -16 -19 -32q-13 17 -30.5 28t-28 14.5t-26.5 6.5q-11 2 -14 4q0 4 8 21t12 29.5t6.5 35t-6.5 49t-29 55.5zM440 185q-10 21 -39 40q-22 15 -35 32q-3 4 -2.5 10.5t6.5 24.5
q19 -17 57 -32q20 -9 27.5 -14t8.5 -11q4 -20 -23 -50v0zM629 244q7 12 11 23q2 -7 -1 -11q-4 -7 -10 -12v0zM543 120q-3 3 -3 8q-1 2 2 7v-1q0 -7 1 -14v0z" />
    <glyph glyph-name="jiaotongiconbus" unicode="&#xe62d;" 
d="M512 736q-160 0 -272 -20t-112 -48v-696q0 -23 14.5 -39t36.5 -16v-43q0 -13 11 -23.5t23 -10.5h77q13 0 23.5 10.5t10.5 23.5v43h380v-43q0 -13 10.5 -23.5t23.5 -10.5h77q13 0 23.5 10.5t10.5 23.5v43q20 3 33.5 18.5t13.5 36.5v696q-3 26 -117 47t-267 21zM371 681
h273q12 0 19 -8t7 -18q0 -12 -7.5 -19t-18.5 -7h-273q-12 0 -18.5 8t-6.5 18t8 18t17 8zM375 79h-110q-26 0 -26 26q0 13 5 19t21 6h110q26 0 26 -25.5t-26 -25.5zM550 190h-157l55 111h-81l-56 -111h-72v328q0 23 14.5 39.5t36.5 16.5h444q22 0 36.5 -16.5t14.5 -39.5v-328
h-154l47 111h-72zM619 105q0 13 5 19t20 6h111q26 0 26 -25q0 -14 -5.5 -20t-20.5 -6h-111q-25 0 -25 26z" />
    <glyph glyph-name="xinfeng" unicode="&#xe605;" 
d="M952 672h-879q-29 0 -49.5 -20.5t-20.5 -49.5v-615q0 -30 20.5 -50.5t49.5 -20.5h879q29 0 49.5 20.5t20.5 50.5v615q0 29 -20.5 49.5t-49.5 20.5zM909 614l-381 -328q-10 -10 -13 -10t-13 10l-382 328h789zM965 7l-246 263q-10 11 -24.5 11t-25 -10.5t-10.5 -25
t10 -24.5l223 -247h-750l222 247q11 10 11 24.5t-10.5 25t-25 10.5t-24.5 -11l-254 -268v562l391 -327q18 -18 32 -26.5t33 -8.5q13 0 24.5 5.5t16.5 10t19 19.5l388 327v-557z" />
    <glyph glyph-name="shijian" unicode="&#xe606;" 
d="M737 303h-227v225q0 12 -7 20t-18.5 8t-18.5 -8t-7 -20v-251q0 -20 19 -25q4 -1 8 -1h251q12 0 20 7.5t8 18.5t-8 18.5t-20 7.5v0v0zM512 701q106 0 195.5 -52t141.5 -141.5t52 -195.5t-52 -195.5t-141.5 -141.5t-195.5 -52t-195.5 52t-141.5 141.5t-52 195.5t52 195.5
t141.5 141.5t195.5 52zM512 658q-70 0 -135 -27q-62 -27 -109.5 -74.5t-74.5 -109.5q-27 -65 -27 -135t27 -135q27 -62 74.5 -109.5t109.5 -74.5q65 -27 135 -27t135 27q62 27 109.5 74.5t74.5 109.5q27 65 27 135t-27 135q-27 62 -74.5 109.5t-109.5 74.5q-65 27 -135 27v0
v0zM512 645z" />
    <glyph glyph-name="bus" unicode="&#xe624;" 
d="M281.5 -7q-31.5 0 -54 22.5t-22.5 54t22.5 54t54 22.5t54 -22.5t22.5 -54t-22.5 -54t-54 -22.5zM281.5 95q-10.5 0 -18 -7.5t-7.5 -18t7.5 -18t18 -7.5t18 7.5t7.5 18t-7.5 18t-18 7.5zM742.5 -7q-31.5 0 -54 22.5t-22.5 54t22.5 54t54 22.5t54 -22.5t22.5 -54t-22.5 -54
t-54 -22.5zM742.5 95q-10.5 0 -18 -7.5t-7.5 -18t7.5 -18t18 -7.5t18 7.5t7.5 18t-7.5 18t-18 7.5zM691 556h-358q-11 0 -18.5 7.5t-7.5 18t7.5 18t18.5 7.5h358q11 0 18.5 -7.5t7.5 -18t-7.5 -18t-18.5 -7.5zM794 505h-564q-10 0 -17.5 -7.5t-7.5 -18.5v-256
q0 -10 7.5 -17.5t17.5 -7.5h256v0h1h255v0h1h51q10 0 17.5 7.5t7.5 17.5v256q0 11 -7.5 18.5t-17.5 7.5zM256 454h512v-205h-18l-147 98q-9 6 -19.5 4t-16 -11t-3.5 -19.5t11 -16.5l83 -55h-164l-147 98q-9 6 -19.5 4t-16 -11t-3.5 -19.5t11 -16.5l83 -55h-146v205v0z
M800 721q-106 40 -288 40t-288 -40q-122 -47 -122 -139v-564q0 -46 29.5 -81t73.5 -44v-54q0 -21 15 -36t36 -15h51q21 0 36 15t15 36v51h308v-51q0 -21 15 -36t36 -15h51q21 0 36 15t15 36v54q44 9 73.5 44t29.5 81v564q0 92 -122 139zM307 -161h-51v51h51v-51zM717 -161
v51h51v-51h-51zM870 18q0 -31 -22.5 -53.5t-53.5 -22.5h-564q-31 0 -53.5 22.5t-22.5 53.5v564q0 57 89 91q96 37 269 37t269 -37q89 -34 89 -91v-564z" />
    <glyph glyph-name="zixun" unicode="&#xe607;" 
d="M813 423q-28 15 -41 22v19h-7h-156q-26 0 -46 13q-37 25 -37 69v178v7h-7h-360q-26 0 -39 -21q-5 -8 -5 -19v-5v-772q0 -8 1 -13q3 -14 14 -23t25 -9h5h568q8 0 15 1q13 4 21 14.5t8 24.5v37q0 5 4 7q2 0 21 9q12 -13 15 -15q1 -1 1 -4v-41q-2 -27 -21.5 -48t-46.5 -25
q-7 -1 -14 -1h-575q-31 0 -54.5 20.5t-26.5 51.5q-1 4 -1 11v779q0 30 19.5 53t49.5 28q7 1 14 1h189h203q5 0 8 -3q111 -120 247 -266q4 -4 2 -8q-1 -3 2 -6q5 -3 5 -11v-49v-6zM568 696h-1v-4v-144q0 -6 1 -12q4 -14 14.5 -22.5t25.5 -8.5h133l5 1q-73 78 -178 190z
M444 197q0 94 66 160t159 66t159.5 -65.5t66.5 -159.5t-66 -160.5t-159 -66.5q-95 0 -161 67t-65 159zM485 197.5q0 -76.5 54 -131t130.5 -54.5t130.5 54.5t54 131t-54 130.5t-130.5 54t-130.5 -54t-54 -130.5zM422 94q13 -24 22 -40h-225q-1 3 -1.5 17.5t0.5 21.5v1h1h2
h201zM423 463v-4v-35q-3 -1 -101.5 -1t-103.5 1v39q3 1 101 1t104 -1zM423 341v-41h-205v40q3 1 99 1h106zM832 -15q14 13 30 27l3 -2l56 -56l69 -69q10 -10 7 -21t-13 -14.5t-19 2.5q-1 2 -4 4l-126 126zM403 218v-41h-185v19.5v19.5v1h1q64 0 179 1h5z" />
    <glyph glyph-name="yibiaopan" unicode="&#xe608;" 
d="M512 793q-100 0 -191.5 -39t-157.5 -105t-105 -157.5t-39 -192t39 -192t105 -157.5t157.5 -105t192 -39t192 39t157.5 105t105 157.5t39 192t-39 192t-105 157.5t-157.5 105t-192.5 39v0v0zM512 -140q-89 0 -170.5 34.5t-140.5 93.5t-93.5 140.5t-34.5 171t34.5 171
t93.5 140t140.5 93.5t171 35t171 -35t140 -93.5t93.5 -140t35 -171t-35 -171t-93.5 -140.5t-140 -93.5t-171.5 -34.5v0v0zM364 86h81v-133h-81v133v0zM486 86h81v-133h-81v133v0zM606 86h80v-133h-80v133v0zM578 269q0 -17 -12 -29t-29 -12t-28.5 11.5t-12.5 27.5l-145 180
l186 -137q17 0 29 -12t12 -29v0v0zM278 201l36 -36l-67 -67l-36 36l67 67v0zM247 325h-94v51h94v-51v0zM268 600l67 -67l-36 -36l-67 67l36 36v0zM538 577h-51v95h51v-95v0zM743 479l-36 35l67 67l35 -36l-66 -66v0zM886 376v-51h-94v51h94v0zM760 191l67 -67l-36 -36
l-67 67l36 36v0zM760 191z" />
    <glyph glyph-name="paixing" unicode="&#xe609;" 
d="M480 172v-256h64v256h-64zM192 108v-32h-64v-96v-64h64h64v64h-64v32h64v96v64h-64h-64v-64h64zM832 108v-32h-64v-64h64v-32h-64v-64h128v32v32v32v32v32v32v64h-64h-64v-64h64zM128 556q-53 0 -90.5 -37.5t-37.5 -90.5v-512q0 -53 37.5 -90.5t90.5 -37.5h128
q58 0 96 43q38 -43 96 -43h128q58 0 96 43q38 -43 96 -43h128q53 0 90.5 37.5t37.5 90.5v256q0 53 -37.5 90.5t-90.5 37.5h-128q-35 0 -64 -17v401q0 53 -37.5 90.5t-90.5 37.5h-128q-53 0 -90.5 -37.5t-37.5 -90.5v-145q-29 17 -64 17h-128zM384 -84v512v256q0 26 19 45
t45 19h128q26 0 45 -19t19 -45v-512v-256q0 -26 -19 -45t-45 -19h-128q-26 0 -45 19t-19 45zM128 492h128q26 0 45 -19t19 -45v-512q0 -26 -19 -45t-45 -19h-128q-26 0 -45 19t-19 45v512q0 26 19 45t45 19zM768 236h128q26 0 45 -19t19 -45v-256q0 -26 -19 -45t-45 -19
h-128q-26 0 -45 19t-19 45v256q0 26 19 45t45 19z" />
    <glyph glyph-name="4" unicode="&#xe62e;" horiz-adv-x="1506" 
d="M1117 401q-32 0 -63 -9l-51 124l48 57v0.5t1 0.5l60 -1v0q8 0 14 6t6 14.5t-5.5 14t-14.5 5.5l-148 1v0q-9 0 -14.5 -6t-5.5 -14t5.5 -14t13.5 -6h37l-32 -38l-349 -43l-45 97h68q9 0 14.5 6t5.5 14t-5.5 14t-14.5 6h-99v0h-37q-8 0 -14 -6t-6 -14t6 -14t14 -6h25
l56 -124l-55 -86q-45 21 -93 21q-92 0 -157.5 -65.5t-65.5 -158t65.5 -158t157.5 -65.5q87 0 150.5 59t71.5 145h80v0v0h1q3 0 7 1h0.5h0.5v1q3 1 6 4l1 1l0.5 0.5l0.5 0.5l218 310l41 -99q-56 -28 -89.5 -81.5t-33.5 -117.5q0 -93 65 -158.5t157.5 -65.5t158 65.5t65.5 158
t-65.5 158t-157.5 65.5zM607 423l103 -225h-49q-4 49 -29 91.5t-65 70.5zM601 198h-138l72 112q57 -42 66 -112zM439 14q-68 0 -115.5 48t-47.5 115.5t47.5 115.5t115.5 48q31 0 61 -12l-90 -141q-6 -10 -0.5 -20t17.5 -10h174q-8 -61 -54 -102.5t-108 -41.5zM745 217
l-109 238l303 37zM1116.5 14q-67.5 0 -115.5 48t-48 116q0 46 24 84.5t63 59.5l62 -152q5 -12 19 -12q4 0 7 1q8 3 11 11t0 15l-62 151q20 5 40 5q67 0 115 -48t48 -115.5t-48 -115.5t-115.5 -48zM838 99h-102q-8 0 -14 -6t-6 -14t6 -14t14 -6h102q8 0 14 6t6 14t-6 14
t-14 6z" />
    <glyph glyph-name="restaurant" unicode="&#xe664;" 
d="M249 75h15v75h29v14h-44v-89zM917 529q0 89 -50 151.5t-121 62.5t-121 -62.5t-50 -151.5q0 -78 41 -121t108 -49v-106q-38 -3 -63.5 -30.5t-25.5 -65.5v-238q0 -40 28 -68t68 -28h30q40 0 68 28.5t28 67.5v238q0 38 -25.5 65.5t-63.5 30.5v106q67 6 108 49t41 121z
M813 157v-238q0 -21 -15.5 -36.5t-36.5 -15.5h-30q-21 0 -36.5 15.5t-15.5 36.5v238q0 21 15.5 36.5t36.5 15.5h30q21 0 36.5 -15.5t15.5 -36.5zM746 402q-56 0 -91 31.5t-35 94.5q0 69 37 120t89 51t89 -51t37 -120q0 -63 -35 -94.5t-91 -31.5zM404.5 736q-9.5 0 -16 -6.5
t-6.5 -16.5v-163h-1q-2 -17 -12 -27.5t-24 -10.5t-24 10.5t-12 27.5h-1v168q0 10 -6.5 17.5t-15.5 7.5t-15.5 -7.5t-6.5 -17.5v-168h-1q-3 -17 -12.5 -27.5t-24 -10.5t-24 10.5t-11.5 27.5h-1v163q0 10 -7 16.5t-16 6.5t-15.5 -6.5t-6.5 -16.5v-207q0 -37 26 -63t63 -26h30
v-164q-38 -3 -63.5 -30.5t-25.5 -65.5v-238q0 -40 28 -68t68 -28h30q40 0 68 28t28 68v238q0 38 -25.5 65.5t-63.5 30.5v164h30q37 0 63 26t26 63v207q0 10 -6.5 16.5t-16 6.5zM353 157v-238q0 -21 -15.5 -36.5t-36.5 -15.5h-30q-21 0 -36.5 15.5t-15.5 36.5v238
q0 21 15.5 36.5t36.5 15.5h30q21 0 36.5 -15.5t15.5 -36.5zM709 75h15v75h29v14h-44v-89z" />
    <glyph glyph-name="cesuo" unicode="&#xe6d4;" 
d="M303.5 685q29.5 0 50.5 21t21 50t-21 50t-50.5 21t-50 -21t-20.5 -50t20.5 -50t50 -21zM380 671h-76h-77q-52 0 -71 -18.5t-19 -73.5v-217q0 -20 14 -28t28.5 0t14.5 28l5 199h14v-545q0 -26 19.5 -37t39 0t19.5 37l5 316h15l5 -316q0 -26 19.5 -37t39 0t19.5 37v545h15
l5 -199q0 -20 14 -28t28.5 0t14.5 28v217q0 55 -19.5 73.5t-71.5 18.5zM728 686q29 0 49.5 21t20.5 50.5t-20.5 50.5t-49.5 21t-49.5 -21t-20.5 -50.5t20.5 -50.5t49.5 -21zM919 408l-61 201q-9 28 -35 45.5t-63 17.5h-64q-37 0 -63 -17.5t-35 -45.5l-61 -201
q-6 -20 4 -32.5t25 -8.5t21 23l64 183h7q-84 -328 -87 -341q-3 -10 7 -10h73v-216q0 -21 16 -29.5t32.5 0t16.5 29.5v217h25l-1 -217q0 -21 16.5 -29.5t33 0t16.5 29.5v216h72q10 0 7 10q-1 6 -23 91t-43 167.5l-21 82.5h7l64 -183q6 -19 21 -23t25 8.5t4 32.5z" />
    <glyph glyph-name="yulechangsuo" unicode="&#xe680;" 
d="M702 567l14 42l43 15l-43 14l-14 42l-15 -42l-45 -14l46 -15zM807 561l19 -56l19 56l56 19l-56 19l-19 56l-19 -56l-60 -19zM425 634q-1 1 0 8q2 7 8.5 13.5t13.5 6.5q8 0 15 -6.5t8 -13.5q0 -1 0.5 -3.5t-0.5 -3.5q12 -1 26 -3q1 7 0 14q-5 33 -39 42v127q0 16 -11.5 16
t-11.5 -16v-127q-33 -10 -33 -46q0 -7 1 -11q13 2 23 3zM789 60l-14 -43l-46 -14l46 -14l14 -43l14 43l43 14l-43 14zM501 599v0q-23 3 -45.5 3t-45.5 -3v0q-122 -17 -204.5 -110.5t-82.5 -219.5q0 -90 44.5 -166.5t121.5 -121t167 -44.5t166.5 44.5t121 121t44.5 166.5
q0 126 -82.5 219.5t-204.5 110.5zM729 392q14 -30 20 -61q-29 10 -66 17q-6 41 -17 81q22 -10 37 -19q13 -8 26 -18zM697 447q-21 11 -44 20q-8 23 -19 44q36 -27 63 -64zM651 353q-47 7 -102 10q-3 55 -9 102q48 -7 90 -22q14 -42 21 -90zM579 543q9 -13 17 -26
q10 -15 20 -38q-40 12 -81 17q-4 22 -7 37q-3 14 -7 29q30 -6 58 -19zM413 527q5 22 10 41q17 1 33 1t32 -1q9 -30 16 -67v-2q-27 2 -48.5 2t-48.5 -2q3 15 6 28zM402 469q31 3 53 3h1q22 0 53 -3q7 -49 10 -104q-30 1 -63 1t-64 -1q3 56 10 104zM371 465q-6 -48 -9 -102
q-55 -3 -102 -10q7 48 21 90q43 15 90 22zM277 511q-10 -22 -19 -44q-23 -9 -44 -20q27 37 63 64zM156 269.5q0 13.5 1 28.5q28 10 69 18q-2 -26 -2 -46.5t2 -46.5q-14 2 -18 3q-29 7 -51 15q-1 15 -1 28.5zM182 147q-13 30 -20 61q30 -10 67 -17q5 -41 17 -81
q-22 10 -37 19q-14 8 -27 18zM214 92q21 -11 44 -20q9 -23 19 -44q-36 27 -63 64zM282 96q-15 42 -22 90q47 -7 102 -10q3 -54 9 -102q-48 7 -89 22zM389 269q0 33 1 65q28 2 63 2h3q36 0 65 -2q1 -32 1 -64.5t-1 -65.5q-33 -1 -65 -1q-31 0 -66 1q-1 32 -1 65zM499 12
q-5 -22 -11 -41q-16 -1 -32 -1t-32 1q-10 30 -17 67v2q27 -2 48.5 -2t48.5 2q-3 -15 -5 -28zM596 22q-8 -13 -17 -26q-28 -13 -58 -19q6 23 12 56q1 1 1.5 5t0.5 5q41 5 81 17q-10 -23 -20 -38zM540 74q6 48 10 102q54 3 101 10q-7 -48 -21 -90q-42 -15 -90 -22zM634 28
q11 21 19 44q23 9 44 20q-27 -37 -63 -64zM730 147q-14 -10 -27 -18q-16 -9 -37 -19q11 40 17 81q15 3 28 6q20 5 38 11q-6 -31 -19 -61zM686 223q2 26 2 46.5t-2 46.5l18 -3q29 -7 50 -15q2 -15 2 -28.5t-2 -28.5q-27 -10 -68 -18z" />
    <glyph glyph-name="wenduji" unicode="&#xe60a;" 
d="M615 272v427q0 43 -30.5 73.5t-73.5 30.5t-74 -30.5t-31 -73.5v-427q-31 -24 -48.5 -59.5t-17.5 -74.5q0 -71 50 -121t120.5 -50t120.5 50t50 121q0 39 -17.5 74.5t-48.5 59.5zM510.5 8q-53.5 0 -91.5 38t-38 92q0 32 15 60.5t42 46.5q9 6 9 17v437q0 26 18.5 44.5
t45 18.5t45 -18.5t18.5 -44.5v-437q0 -11 9 -17q27 -18 42 -46.5t15 -60.5q0 -54 -38 -92t-91.5 -38zM548 206v331q0 15 -11 26t-26.5 11t-26 -11t-10.5 -26v-331q-19 -10 -30 -28t-11 -40q0 -32 23 -55t55 -23t54.5 23t22.5 55q0 22 -11 40t-29 28z" />
    <glyph glyph-name="ruce" unicode="&#xe625;" 
d="M864 390q0 39 -29 67.5t-67 28.5h-51l32 186q57 23 57 77q0 33 -24.5 58t-58.5 25h-198v19q0 15 -9 23.5t-23.5 8.5t-23 -8.5t-8.5 -23.5v-19h-205q-34 0 -58.5 -25t-24.5 -58q0 -29 16.5 -50.5t40.5 -26.5l26 -186h-38q-39 0 -67.5 -28.5t-28.5 -67.5q0 -28 16 -50.5
t41 -32.5q5 -25 12 -50.5t22.5 -64t34.5 -67.5t50 -54t67 -33v-83q0 -3 3 -12.5t3 -12.5q7 -7 26 -7v0h185q4 0 13.5 3.5t12.5 3.5q6 6 6 25v83q31 6 58 24.5t46.5 44.5t34.5 52t26.5 57t17 48.5t9.5 36.5q25 9 41.5 35t16.5 54zM256 768h467q19 0 19 -19t-19 -19h-467
q-19 0 -19 19q0 8 6.5 13.5t12.5 5.5zM301 666h384l-32 -180h-327zM218 422h550q14 0 23 -8.5t9 -23t-9 -23.5t-23 -9h-550q-15 0 -23.5 9t-8.5 23.5t8.5 23t23.5 8.5zM582 102q-3 0 -12.5 -3t-12.5 -3q-10 -10 -10.5 -22.5t3.5 -79.5h-121q0 67 -1 79.5t-6 22.5q-6 6 -25 6
q-32 0 -59 21.5t-44.5 55t-28 63.5t-15.5 59h492q-11 -36 -24.5 -67t-33 -62.5t-46 -50.5t-56.5 -19z" />
    <glyph glyph-name="iconfontapptianqi" unicode="&#xe60b;" 
d="M428.5 719q11.5 0 19.5 8t8 20v56q0 11 -8 19t-19.5 8t-20 -8t-8.5 -19v-56q0 -12 8.5 -20t20 -8zM645 645l40 40q8 8 8 19.5t-8 19.5t-20 8t-20 -8l-39 -39q-8 -8 -8 -20t8 -20t19.5 -8t19.5 8zM93 440h56q12 0 20 8t8 19.5t-8 20t-20 8.5h-56q-11 0 -19 -8.5t-8 -20
t8 -19.5t19 -8zM679 467.5q0 -11.5 8.5 -19.5t19.5 -8h56q12 0 20 8t8 19.5t-8 20t-20 8.5h-56q-11 0 -19.5 -8.5t-8.5 -20zM211 645q8 -8 20 -8t20 8t8 20t-8 20l-40 39q-8 8 -19.5 8t-19.5 -8t-8 -19.5t8 -19.5zM763 384q-14 0 -27 -2q-44 60 -113 90q-2 79 -58.5 135
t-136.5 56t-137.5 -57.5t-57.5 -137.5q0 -44 20 -85q-78 -3 -132.5 -59.5t-54.5 -134.5q0 -81 57 -138.5t138 -57.5q36 0 69 13q79 -68 182 -68t182 68q33 -13 69 -13q81 0 138 57.5t57 138t-57 138t-138 57.5zM428 607q52 0 90.5 -33.5t47.5 -83.5q-29 6 -54 6
q-60 0 -113.5 -24.5t-92.5 -68.5q-17 31 -17 65q0 58 40.5 98.5t98.5 40.5zM763 49q-44 0 -80 26q-31 -38 -75.5 -60t-95.5 -22t-95.5 22t-75.5 60q-36 -26 -80 -26q-58 0 -99 41t-41 98.5t41 98.5t99 41q18 0 38 -6q13 -3 15 -4q10 20 28 41q31 38 75.5 59.5t94.5 21.5
q24 0 51 -7q28 -6 52 -19q63 -34 95 -96q26 10 53 10q58 0 99 -41t41 -98.5t-41 -98.5t-99 -41z" />
    <glyph glyph-name="jiudian" unicode="&#xe652;" 
d="M927 -92h-185h-30h-400h-30h-185q-25 0 -43 18t-18 43v246v154v245q0 26 18 44t43 18h185v123q0 25 18 43t43 18h338q25 0 43 -18t18 -43v-123h185q25 0 43 -18t18 -44v-245v-154v-246q0 -25 -18 -43t-43 -18zM282 645h-185q-12 0 -21 -9t-9 -22v-192v-260v-193
q0 -12 9 -21t21 -9h185v706zM435 -61h154v153h-154v-153zM712 799q0 12 -9 21t-22 9h-338q-13 0 -22 -9t-9 -21v-860h92v153q0 13 9 22t22 9h154q13 0 22 -9t9 -22v-153h92v860zM957 162v260v192q0 13 -9 22t-21 9h-185v-706h185q12 0 21 9t9 21v193zM865 61h-30
q-13 0 -22 9t-9 22v31q0 13 9 22t22 9h30q13 0 22 -9t9 -22v-31q0 -13 -9 -22t-22 -9zM865 246h-30q-13 0 -22 9t-9 21v31q0 13 9 22t22 9h30q13 0 22 -9t9 -22v-31q0 -12 -9 -21t-22 -9zM865 430h-30q-13 0 -22 9t-9 22v31q0 12 9 21t22 9h30q13 0 22 -9t9 -21v-31
q0 -13 -9 -22t-22 -9zM604 276h-184q-7 0 -11.5 4.5t-4.5 11t4.5 11t11.5 4.5h184q7 0 11.5 -4.5t4.5 -11t-4.5 -11t-11.5 -4.5zM604 461h-184q-7 0 -11.5 4.5t-4.5 11t4.5 11t11.5 4.5h184q7 0 11.5 -4.5t4.5 -11t-4.5 -11t-11.5 -4.5zM604 645h-184q-7 0 -11.5 4.5
t-4.5 11t4.5 11t11.5 4.5h184q7 0 11.5 -4.5t4.5 -11t-4.5 -11t-11.5 -4.5zM159 522h30q13 0 22 -9t9 -21v-31q0 -13 -9 -22t-22 -9h-30q-13 0 -22 9t-9 22v31q0 12 9 21t22 9zM159 338h30q13 0 22 -9t9 -22v-31q0 -12 -9 -21t-22 -9h-30q-13 0 -22 9t-9 21v31q0 13 9 22
t22 9zM159 154h30q13 0 22 -9t9 -22v-31q0 -13 -9 -22t-22 -9h-30q-13 0 -22 9t-9 22v31q0 13 9 22t22 9z" />
    <glyph glyph-name="iconset0401" unicode="&#xe718;" 
d="M512 853q-95 0 -182 -37t-150 -99.5t-100 -149.5t-37 -183t37 -183t100 -149.5t150 -99.5t182 -37q96 0 183 37t149.5 99.5t99.5 149.5t37 183t-37 183t-99.5 149.5t-149.5 99.5t-183 37zM386 791l-25 -32q0 -1 -1.5 -2t-1.5 -2q-24 -33 -44 -81l-3 -4q0 -1 -1 -3t-1 -4
q-38 20 -70 45q59 56 147 83zM205 681q43 -37 87 -56l-2 -4q-17 -52 -23 -105q0 -2 -1 -6.5t-1 -8.5q-5 -30 -5 -42q0 -11 -2 -17q0 -24 -2 -37h-171q10 159 120 276zM85 363h171q0 -26 2 -37q0 -10 2 -17q1 -7 2 -21t3 -21q0 -2 1 -7t1 -8q8 -49 23 -105l2 -4
q-47 -22 -87 -56q-110 117 -120 276zM237 60q32 25 70 45q0 -2 1 -4t1 -3l2 -4q21 -48 45 -81q0 -1 1 -2t1 -2l26 -32q-85 27 -147 83zM491 -41q-44 10 -81.5 52t-63.5 108q64 25 145 28v-188zM491 192q-83 -3 -160 -30q-29 90 -32 203h192v-173zM491 405h-192q3 114 32 203
q77 -27 160 -30v-173zM491 619q-75 3 -145 27q25 68 63.5 110t81.5 50v-187zM939 405h-171q0 26 -2 37q0 10 -2 17q-1 7 -2 21t-3 21q0 2 -1 7t-1 8q-8 49 -23 105l-2 4q47 22 87 56q110 -117 120 -276zM787 708q-32 -25 -70 -45q0 2 -1 4t-1 3l-2 4q-21 48 -45 81q0 1 -1 2
t-1 2l-26 32q85 -27 147 -83zM533 809q44 -10 81.5 -52t63.5 -108q-64 -25 -145 -28v188zM533 576q83 3 160 30q29 -90 32 -203h-192v173zM533 363h192q-3 -114 -32 -203q-77 27 -160 30v173zM533 -41v190q75 -3 145 -27q-26 -68 -63 -110.5t-82 -52.5zM638 -23l25 32
q0 1 1.5 2t1.5 2q24 33 44 81l3 4q0 1 1 3t1 4q38 -20 70 -45q-59 -56 -147 -83zM819 87q-43 37 -87 56l2 4q17 52 23 105q0 2 1 6.5t1 8.5q5 30 5 42q0 11 2 17q0 24 2 37h171q-10 -159 -120 -276z" />
    <glyph glyph-name="jingdian1" unicode="&#xe650;" 
d="M840 98v108h-47v252h128v82h-1l-323 187v12q0 36 -25.5 62t-62 26t-62.5 -26t-26 -62q0 -7 1 -13l-321 -186h-1v-82h124v-252h-42v-108h-107v-82h872v82h-107zM509.5 779q16.5 0 28.5 -12t12 -28.5t-12 -28.5t-28.5 -12t-28.5 12t-12 28.5t12 28.5t28.5 12zM471 659
q18 -8 38 -8q21 0 40 9l207 -120h-491zM711 458v-252h-80v252h80zM549 458v-252h-80v252h80zM386 458v-252h-79v252h79zM772 98h-519v40h519v-40z" />
    <glyph glyph-name="statistics" unicode="&#xe60c;" 
d="M919 -65h-813q-17 0 -29.5 12t-12.5 30v813q0 17 12.5 29.5t29.5 12.5h813q18 0 30 -12.5t12 -29.5v-813q0 -18 -12 -30t-30 -12zM877 748h-729v-729h729v729zM210 377v0l112 70v0q10 6 22 6q13 0 24 -7v0l186 -124l214 151q11 8 25 8q18 0 30 -12t12 -30q0 -21 -17 -34
v0l-239 -168v0q-11 -8 -24 -8q-14 0 -24 8l-187 124l-88 -55q-11 -7 -24 -7q-17 0 -29.5 12t-12.5 30q0 23 20 36z" />
    <glyph glyph-name="jizhongguanli" unicode="&#xe6d9;" 
d="M704 -64h-384v896h384v-896zM640 768h-256v-768h256v768zM256 704v64h-256v-768h256v64h-192v640h192zM960 704v-640h-192v-64h256v768h-256v-64h192zM576 640h-128v-64h128v64zM576 448h-128v-64h128v64zM576 256h-128v-64h128v64z" />
    <glyph glyph-name="guanli" unicode="&#xe61a;" 
d="M335 884h-210q-51 0 -88 -35.5t-37 -86.5v-204q0 -51 37 -87t88 -36h210q52 0 89 36t37 87v204q0 51 -37 86.5t-89 35.5zM377 558q0 -17 -12.5 -29t-29.5 -12h-210q-17 0 -29.5 12t-12.5 29v204q0 17 12.5 29t29.5 12h210q17 0 29.5 -12t12.5 -29v-204zM335 338h-210
q-51 0 -88 -36t-37 -87v-204q0 -50 37 -86t88 -36h210q52 0 88.5 36t36.5 86v204q1 51 -36 87t-89 36zM335 -30h-210q-17 0 -29.5 12t-12.5 29v204q0 17 12.5 29t29.5 12h210q17 0 29.5 -12t12.5 -29v-204q0 -17 -12.5 -29t-29.5 -12zM899 338h-209q-52 0 -89 -36t-37 -86
v-204q0 -51 37 -87t89 -36h209q52 0 88.5 36t36.5 87v203q0 51 -37 87t-88 36zM941 11q0 -17 -12.5 -29t-29.5 -12h-209q-18 0 -30 12t-12 29v204q0 17 12 29t30 12h209q17 0 29.5 -12t12.5 -29v-204zM719 465q31 -30 74.5 -30t74.5 30l125 122q31 30 31 72.5t-31 73.5
l-125 121q-31 30 -74.5 30t-74.5 -30l-125 -121q-31 -31 -31 -73.5t31 -72.5zM653 675l125 122q7 6 16 6t15 -6l125 -122q7 -6 7 -15t-7 -15l-125 -122q-7 -6 -15 -6q-10 0 -16 6l-125 121q-6 7 -6 16t6 15z" />
    <glyph glyph-name="xiasanjiao" unicode="&#xe618;" 
d="M512 192l256 321h-513z" />
    <glyph glyph-name="jiaotongtraffic8" unicode="&#xe6bf;" 
d="M340 828v-888h344v888h-344zM656 -32h-288v832h288v-832zM635 780h-247v-789h247v789zM512 750q42 0 71.5 -29.5t29.5 -71.5t-29.5 -72t-71.5 -30t-72 30t-30 72t30 71.5t72 29.5zM512 520q42 0 71.5 -30t29.5 -72t-29.5 -71.5t-71.5 -29.5t-72 29.5t-30 71.5t30 72
t72 30zM512 80q-42 0 -72 29.5t-30 72t30 72t72 29.5t72 -29.5t30 -72t-30 -72t-72 -29.5zM574 649q0 -26 -18 -44t-44 -18t-44.5 18t-18.5 44t18.5 44t44.5 18t44 -18t18 -44zM574 418.5q0 -25.5 -18 -44t-44 -18.5t-44.5 18.5t-18.5 44t18.5 44t44.5 18.5t44 -18.5t18 -44
z" />
    <glyph glyph-name="yinlemusic170" unicode="&#xe61b;" 
d="M657 105v312l184 29q-22 118 -114.5 195.5t-214.5 77.5q-91 0 -168 -45t-122 -122t-45 -168t45 -168t122 -122t168 -45q26 0 53 5q21 36 68 47q12 3 24 4zM573 691l-35 -157h-36l-26 157q17 9 41.5 9t39.5 -5zM512 260q-51 0 -87.5 36.5t-36.5 87.5t36.5 87.5t87.5 36.5
t87.5 -36.5t36.5 -87.5t-36.5 -87.5t-87.5 -36.5zM512 479q-39 0 -67 -28t-28 -67t28 -67t67 -28t67 28t28 67t-28 67t-67 28zM512 316q-28 0 -48 20t-20 48t20 48t48 20t48 -20t20 -48t-20 -48t-48 -20zM555 -4q2 -13 10 -25q-27 -3 -53 -3q-113 0 -209 55.5t-151.5 151.5
t-55.5 209t55.5 209t151.5 151.5t209 55.5q152 0 267 -97t142 -244l-40 -6q-25 132 -128.5 219t-240.5 87q-102 0 -188.5 -50t-136.5 -136.5t-50 -188.5t50 -188.5t136.5 -136.5t188.5 -50q20 0 41 2q0 -8 2 -15zM964 437v-361q0 -22 -15.5 -39t-41.5 -24q-29 -7 -53 3.5
t-29.5 32.5t11 42.5t44.5 28.5q26 6 49 -2v217l-195 -35l-1 -271v0q0 -19 -16 -36t-41 -23q-28 -7 -53 4t-28 31q-6 22 10.5 42.5t44.5 27.5q25 6 48 -1v320z" />
    <glyph glyph-name="liebiao-copy" unicode="&#xe636;" 
d="M95 676h-56q-11 0 -19.5 8t-8.5 19.5t8.5 19.5t19.5 8h56q11 0 19.5 -8t8.5 -19.5t-8.5 -19.5t-19.5 -8v0zM985 676h-668q-11 0 -19.5 8t-8.5 19.5t8.5 19.5t19.5 8h668q11 0 19.5 -8t8.5 -19.5t-8.5 -19.5t-19.5 -8v0zM95 342h-56q-11 0 -19.5 8t-8.5 19.5t8.5 20
t19.5 8.5h56q11 0 19.5 -8.5t8.5 -20t-8.5 -19.5t-19.5 -8v0zM985 342h-668q-11 0 -19.5 8t-8.5 19.5t8.5 20t19.5 8.5h668q11 0 19.5 -8.5t8.5 -20t-8.5 -19.5t-19.5 -8v0zM95 8h-56q-11 0 -19.5 8t-8.5 19.5t8.5 20t19.5 8.5h56q11 0 19.5 -8t8.5 -20t-8.5 -20t-19.5 -8v0
zM985 8h-668q-11 0 -19.5 8t-8.5 19.5t8.5 20t19.5 8.5h668q11 0 19.5 -8.5t8.5 -20t-8.5 -19.5t-19.5 -8v0z" />
    <glyph glyph-name="yibiaopan1" unicode="&#xe60d;" 
d="M512 771q-100 0 -191 -39t-156.5 -105.5t-104.5 -158t-39 -191.5q0 -152 84 -278h814q84 126 84 278q0 100 -39 191.5t-104.5 158t-156.5 105.5t-191 39zM512 695q29 0 49.5 -20.5t20.5 -50t-20.5 -50t-49.5 -20.5t-49.5 20.5t-20.5 50t20.5 50t49.5 20.5zM156 206
q-29 0 -49.5 20.5t-20.5 50t20.5 50t49.5 20.5t49.5 -20.5t20.5 -50t-20.5 -50t-49.5 -20.5zM264 456q-29 0 -49.5 20.5t-20.5 50t20.5 50t49.5 20.5t49.5 -20.5t20.5 -50t-20.5 -50t-49.5 -20.5zM628 466l-57 -213q44 -31 44 -85q0 -43 -30.5 -73t-72.5 -30t-72.5 30
t-30.5 73q0 38 25.5 67t62.5 35l58 215q4 15 17.5 23.5t28.5 4.5t23 -18t4 -29zM690 526.5q0 29.5 20.5 50t49.5 20.5t49.5 -20.5t20.5 -50t-20.5 -50t-49.5 -20.5t-49.5 20.5t-20.5 50zM868 206q-29 0 -49.5 20.5t-20.5 50t20.5 50t49.5 20.5t49.5 -20.5t20.5 -50
t-20.5 -50t-49.5 -20.5z" />
    <glyph glyph-name="tousu1" unicode="&#xe60e;" 
d="M817 832h-611q-46 0 -79 -32.5t-33 -79.5v-476q0 -46 33 -79t79 -33h47v-184q0 -5 3.5 -8t8.5 -3q4 0 8 3l208 192h336q47 0 79.5 33t32.5 79v476q0 47 -32.5 79.5t-79.5 32.5zM873 244q0 -23 -16.5 -39.5t-39.5 -16.5h-358l-16 -15l-134 -123v138h-103q-23 0 -39.5 16.5
t-16.5 39.5v476q0 23 16.5 39.5t39.5 16.5h611q23 0 39.5 -16.5t16.5 -39.5v-476zM312 454h399v56h-399v-56z" />
    <glyph glyph-name="xueli" unicode="&#xe60f;" 
d="M941 590q-2 -9 -3 -10q-12 -48 -60 -60q-23 -6 -66 -15q-6 -1 -6 -7q1 -15 0.5 -107.5t0.5 -107.5q0 -50 -40 -82q-28 -23 -76 -37q-43 -13 -101 -18q-57 -5 -117 -2q-90 3 -149 23q-46 15 -72 38q-35 31 -35 76v217q0 6 -5 7q-33 7 -66 15q-25 6 -42 24t-20 44l-0.5 1
l-0.5 1v16q1 2 1 3q4 25 20 43t40 24q40 9 309 72q8 2 25.5 5.5t25.5 5.5h15q2 0 6 -1t6 -1q38 -9 159 -37t187 -43q48 -11 61 -60q1 -2 1.5 -5.5t1.5 -5.5v-16zM753 491l-1.5 -0.5t-2.5 -0.5q-31 -7 -101.5 -23.5t-108.5 -24.5q-26 -7 -44 -3q-139 32 -209 48q-3 1 -16 4
v-6v-201q0 -18 14 -31q7 -6 11 -9q23 -16 61 -28q49 -15 113 -19q90 -5 164 10q51 11 86 31q18 10 28 22q6 9 6 20v205v6zM511 491q1 0 3.5 0.5t4.5 0.5q44 10 133 30.5t133 30.5q13 3 39.5 9.5t40.5 9.5q17 4 21 20q3 12 -3 21t-20 13q-58 13 -172.5 39.5t-169.5 39.5
q-9 2 -18 0l-141 -33q-134 -31 -202 -47q-23 -5 -23 -27q0 -21 23 -26q108 -24 323 -75zM881 9q-5 1 -9 2q-19 6 -29.5 22t-8.5 36q5 39 22 72q7 12 16 22q15 15 30 -1q10 -10 17 -23q16 -30 21 -67q0 -1 1 -3v-13q-1 -2 -1 -3q-7 -32 -38 -42q-1 0 -4.5 -1l-3.5 -1h-13z
M861 344v120q0 10 6.5 18t16.5 9q12 1 20.5 -6.5t9.5 -18.5v-3v-239q0 -14 -11 -22.5t-25 -3.5q-17 6 -17 26v120z" />
    <glyph glyph-name="tongji" unicode="&#xe610;" horiz-adv-x="1025" 
d="M1024 0q0 -53 -34.5 -90.5t-87.5 -37.5h-780q-52 0 -87 37.5t-35 90.5v768q0 54 35 91t87 37h780q53 0 87.5 -34.5t34.5 -87.5v-774zM975 774q1 27 -22.5 51t-50.5 22h-780q-26 0 -49.5 -22.5t-23.5 -50.5v-775q-2 -27 22 -52.5t51 -25.5h780q27 0 50 23t23 50v780z
M805 95v-77q0 -10 -7 -17t-17.5 -7t-17.5 7t-7 17v77q-32 8 -52.5 34t-20.5 60t20.5 60t52.5 34v467q0 10 7 17t17.5 7t17.5 -7t7 -17v-467q32 -8 52.5 -34t20.5 -60t-20.5 -60t-52.5 -34zM780.5 238q-20.5 0 -34.5 -14.5t-14 -34.5t14 -34.5t34.5 -14.5t34.5 14.5t14 34.5
t-14 34.5t-34.5 14.5zM537 436v-418q0 -10 -7.5 -17t-17.5 -7t-17 7t-7 17v418q-32 8 -52.5 34.5t-20.5 60t20.5 59.5t52.5 34v126q0 10 7 17t17 7t17.5 -7t7.5 -17v-126q32 -8 52.5 -34t20.5 -59.5t-20.5 -60t-52.5 -34.5zM512 579q-20 0 -34.5 -14.5t-14.5 -34.5t14.5 -34
t34.5 -14t34.5 14t14.5 34t-14.5 34.5t-34.5 14.5zM268 192v-174q0 -10 -7 -17t-17 -7t-17 7t-7 17v174q-32 9 -52.5 35t-20.5 59.5t20.5 59.5t52.5 35v369q0 10 7 17t17 7t17 -7t7 -17v-369q32 -9 53 -35t21 -59.5t-21 -59.5t-53 -35zM244 335q-20 0 -34.5 -14t-14.5 -34.5
t14.5 -34.5t34.5 -14t34.5 14t14.5 34.5t-14.5 34.5t-34.5 14z" />
    <glyph glyph-name="denglong3" unicode="&#xe61c;" 
d="M613 123h51v-96h-51v96zM499 123h51v-96h-51v96zM392 123h52v-96h-52v96zM549 691v60h-52v-60q-148 -8 -249.5 -71t-101.5 -149q0 -55 44.5 -103t122.5 -78l4 -2q3 -1 7 -2q12 -4 19 -7q18 -8 18 -10v-33v-9v-20v-9q0 -22 27 -37.5t65 -15.5h154q39 0 66 15.5t27 37.5
h-30h30v71q0 2 18 10q10 4 18 7q6 2 8 3l4 1q78 30 122.5 78t44.5 103q0 58 -49 108t-133 80t-184 32zM499 659h51v-370h-51v370zM331 326q-58 26 -91 64t-33 81q0 57 55 103.5t144 67.5q-55 -33 -85.5 -71.5t-38 -71.5t-0.5 -68t19.5 -59t29.5 -46zM454 607
q-17 -17 -29.5 -37.5t-18 -41t-7.5 -41.5t-0.5 -40.5t4.5 -38t7.5 -33.5t8.5 -26t6.5 -17t3.5 -6q-36 35 -53.5 69.5t-18.5 61t9 52t23 41.5t30 31t24 19t11 7v0zM638 198h-1q0 -7 -8.5 -12t-21.5 -5h-153q-13 0 -22 5t-9 12v9v20v9v13h214v-51h1v0zM611 326q1 0 8.5 18.5
t14.5 50t8.5 67.5t-12.5 75.5t-44 69.5q4 -3 10.5 -7t24 -19t30.5 -31t23 -41.5t9 -52t-18.5 -61t-53.5 -69.5zM718 321q18 22 31 46t21 60t1 70t-39 73.5t-89 74.5q93 -20 151.5 -67.5t58.5 -106.5q0 -45 -35.5 -84.5t-99.5 -65.5z" />
    <glyph glyph-name="yuqing" unicode="&#xe61d;" horiz-adv-x="1152" 
d="M507 350l-65 -33v-115q52 23 112 25v100q-25 10 -47 23zM324 89l-35 76v0v0h-154q-10 0 -17 7.5t-7 17.5v291q0 10 7 17t17 7h222q-24 52 -24 109v5h-198q-56 0 -95.5 -40.5t-39.5 -97.5v-291q0 -58 39.5 -98.5t95.5 -40.5h178q3 20 11 38zM568 -125q-86 0 -147 44.5
t-61 106.5q0 33 19 62l-61 114l111 -64q59 39 139 39q86 0 147 -44t61 -106.5t-61 -107t-147 -44.5zM976 271q-78 0 -122 -43h-101l77 -60q5 -37 47 -62.5t99 -25.5q60 0 103 28t43 67.5t-43 67.5t-103 28zM767 893q-104 0 -192.5 -37.5t-140 -101.5t-51.5 -140
q0 -60 34 -115l-83 -181l175 89q110 -72 258 -72q104 0 193 37.5t140 101.5t51 140t-51 140t-140 101.5t-193 37.5v0zM570 542q-31 0 -53 22.5t-22 54.5t22 54.5t53 22.5t53 -22.5t22 -54.5t-22 -54.5t-53 -22.5v0zM771 542q-32 0 -54 22.5t-22 54.5t22 54.5t53.5 22.5
t53.5 -22.5t22 -54.5t-22 -54.5t-53 -22.5v0zM971 542q-31 0 -53 22.5t-22 54.5t22 54.5t53 22.5t53 -22.5t22 -54.5t-22 -54.5t-53 -22.5v0z" />
    <glyph glyph-name="iconfontwujiaoxing" unicode="&#xe630;" 
d="M977 508q-9 27 -37 32l-267 46l-119 240q-13 26 -42 26t-42 -26l-119 -240l-267 -48q-28 -4 -37 -31.5t12 -48.5l192 -178l-50 -259q-5 -29 19 -46q12 -9 27 -9q12 0 22 6l243 119l242 -119q10 -6 21 -6q16 0 28 9q24 17 19 46l-49 259l193 180q20 20 11 48v0zM977 508z
" />
    <glyph glyph-name="iconfont09" unicode="&#xe633;" 
d="M868 434l-298 298q-31 31 -56.5 31t-55.5 -31l-298 -298q-19 -19 -19 -45t19 -45t45 -19t45 19l198 198v-478q0 -27 18.5 -45.5t45.5 -18.5t45.5 18.5t18.5 45.5v481l202 -201q18 -19 44.5 -19t45.5 19t19 45.5t-19 44.5z" />
    <glyph glyph-name="tianqi" unicode="&#xe631;" 
d="M282 735q5 -13 18 -13q4 0 8 2q7 3 10.5 10.5t0.5 15.5l-27 65q-3 8 -10.5 11t-15.5 0t-11 -10.5t0 -15.5zM79 606l65 -28q3 -1 7 -1q14 0 19 12q3 8 0 15.5t-11 10.5l-65 28q-8 3 -15.5 0t-10.5 -11t0 -15.5t11 -10.5zM157 372q8 3 11.5 10.5t0 15.5t-11 11t-15.5 0
l-65 -27q-8 -3 -11 -10.5t0 -15.5q5 -12 19 -12q3 0 7 1zM651 574q4 0 8 2l63 25q8 3 11 11t0 15.5t-10.5 11t-15.5 -0.5l-63 -25q-8 -3 -11 -11t0 -15q5 -13 18 -13zM497 722q3 -2 8 -2q13 0 18 13l27 64q4 8 0.5 15.5t-11 11t-15 0.5t-10.5 -11l-28 -65q-3 -8 0 -15.5
t11 -10.5zM917 202q-37 38 -88 45q-6 92 -72 157t-158 69q1 9 1 17q0 83 -59 141.5t-141.5 58.5t-141 -58.5t-58.5 -141.5q0 -87 63 -146q-26 -13 -41.5 -38.5t-15.5 -56.5v-5q-50 -14 -82.5 -55.5t-32.5 -94.5q0 -64 46 -109.5t110 -45.5h559q63 0 109 45q46 46 46 110
q0 63 -44 108zM240 490q0 66 47 113t113 47t113 -47t47 -113q0 -9 -2 -19q-59 -8 -108 -43t-76 -89q-27 18 -60 18h-3q-33 22 -52 57.5t-19 75.5zM887 13q-34 -34 -81 -34h-559q-48 0 -82 34t-34 81q0 43 28.5 76t71.5 39q9 1 14 8t3 16q-2 8 -2 16q0 26 16.5 45t41.5 22h3
q3 0 6 1v0h1q32 0 52 -25q8 -9 19.5 -7t15.5 13q21 61 73 98t116 37q82 0 140.5 -58.5t58.5 -141.5v-2v-2q0 -8 5.5 -14t14.5 -6q46 -1 79 -34.5t33 -80.5q0 -48 -34 -81z" />
    <glyph glyph-name="shouru" unicode="&#xe611;" 
d="M572 292l89 145q-1 1 -4.5 1t-11.5 -0.5t-14 -0.5q-22 0 -29 -4.5t-20 -24.5l-71 -116q-1 -2 -2 -2q-1 1 -1 2l-70 117q-13 20 -20 24.5t-27 4.5q-7 0 -14.5 0.5t-11 0.5t-4.5 -1l87 -146q0 -1 1 -3q5 -8 8 -12t9.5 -8t16.5 -6v0h-82q-9 0 -14.5 -6t-5.5 -14t5.5 -13.5
t14.5 -5.5h80v-59h-80q-9 0 -14.5 -5.5t-5.5 -13.5t5.5 -14t14.5 -6h80v-68q0 -12 8.5 -20.5t21 -8.5t21.5 8.5t9 20.5v68h80q8 0 14 6t6 14t-6 13.5t-14 5.5h-80v59h80q8 0 14 5.5t6 13.5t-6 14t-14 6h-82v1q9 2 16 7t9 8t8 13v0zM786 535q-17 16 -62 42.5t-77 48.5t-32 36
q0 7 9.5 15t9.5 18q0 9 -9.5 13t-9.5 13q0 6 6 14.5t21 42t32 89.5q-42 12 -70 11.5t-41.5 -7.5t-41 -25t-51.5 -30q-18 -3 -33.5 4.5t-25 19.5t-23 22.5t-29 13t-41.5 -8.5q13 -40 31 -71.5t38 -57t22 -30.5q-17 -1 -17 -13t17 -14v-2v-2q-4 -15 -35.5 -40t-75.5 -55.5
t-62 -46.5q-18 -17 -39 -49t-40.5 -74.5t-37.5 -92t-27 -101.5t-11 -102t11 -94t38.5 -77t73.5 -52.5t114 -19.5h416q60 0 103 19.5t65.5 52.5t33.5 77t7.5 94t-13.5 102t-27.5 101.5t-37.5 92t-40.5 74.5t-38.5 49v0zM704 -69q-74 -2 -126 -2t-67 1l-15 1q-12 -5 -178 0
q-66 0 -108 27t-57.5 71t-15.5 99.5t15 113.5t37 112t48.5 96.5t50.5 65.5q16 15 61.5 47t79.5 58.5t37 40.5q1 4 -6 8t-15 9t-8 12q0 9 12.5 14.5t16.5 15.5q-2 11 -11 17t-19.5 9.5t-26 19t-28.5 41.5q18 0 31 -7t18.5 -13.5t17 -10t25.5 3.5q8 5 25 15.5t22 13.5
t17.5 8.5t22 6.5t25.5 2.5t36 0.5q-9 -30 -21 -50t-21 -27t-16 -14t-7 -16q20 -6 29 -30q4 -10 -3.5 -27.5t3.5 -30.5q2 -2 63.5 -48t85.5 -69q25 -25 51 -68.5t46.5 -97.5t35 -112t13.5 -112.5t-16.5 -98t-56 -70t-103.5 -26.5v0zM704 -69z" />
    <glyph glyph-name="jiudian1" unicode="&#xe62f;" 
d="M998 -68h-981q-7 0 -12 5t-5 12.5t5 12.5t12 5h981q7 0 12 -5t5 -12.5t-5 -12.5t-12 -5zM522 -51h-348q-24 0 -41 17.5t-17 41.5v785q0 24 17 41.5t41 17.5h348q24 0 41 -17.5t17 -41.5v-785q0 -24 -17 -41.5t-41 -17.5zM174 817q-10 0 -16.5 -7t-6.5 -17v-785
q0 -10 6.5 -16.5t16.5 -6.5h348q10 0 16.5 6.5t6.5 16.5v785q0 10 -6.5 17t-16.5 7h-348v0zM840 -55h-237q-24 0 -41 17.5t-17 41.5v559q0 25 17 42t41 17h237q23 0 40 -17t17 -42v-559q0 -24 -17 -41.5t-40 -17.5zM603 587q-9 0 -16 -7t-7 -17v-559q0 -10 7 -16.5t16 -6.5
h237q9 0 16 6.5t7 16.5v559q0 10 -7 17t-16 7h-237zM296 606h-86q-16 0 -27.5 11.5t-11.5 28.5v87q0 16 11.5 27.5t27.5 11.5h86q16 0 27.5 -11.5t11.5 -27.5v-87q0 -17 -11.5 -28.5t-27.5 -11.5zM210 755q-9 0 -15 -6.5t-6 -15.5v-87q0 -9 6 -15.5t15 -6.5h86q9 0 15 6.5
t6 15.5v87q0 9 -6 15.5t-15 6.5h-86zM489 606h-92q-15 0 -25.5 11t-10.5 26v93q0 15 10.5 25.5t25.5 10.5h92q15 0 25.5 -10.5t10.5 -25.5v-93q0 -15 -10.5 -26t-25.5 -11zM397 755q-7 0 -12.5 -5.5t-5.5 -13.5v-93q0 -8 5.5 -13.5t12.5 -5.5h92q7 0 12.5 5.5t5.5 13.5v93
q0 8 -5.5 13.5t-12.5 5.5h-92zM299 412h-92q-15 0 -25.5 10.5t-10.5 25.5v94q0 15 10.5 25.5t25.5 10.5h92q15 0 25.5 -10.5t10.5 -25.5v-94q0 -15 -10.5 -25.5t-25.5 -10.5zM207 560q-8 0 -13 -5.5t-5 -12.5v-94q0 -8 5 -13.5t13 -5.5h92q8 0 13 5.5t5 13.5v94q0 7 -5 12.5
t-13 5.5h-92zM488 412h-90q-15 0 -26 11t-11 26v92q0 15 11 26t26 11h90q15 0 26 -11t11 -26v-92q0 -15 -11 -26t-26 -11zM398 560q-8 0 -13.5 -5.5t-5.5 -13.5v-92q0 -8 5.5 -14t13.5 -6h90q8 0 13.5 6t5.5 14v92q0 8 -5.5 13.5t-13.5 5.5h-90zM301 205h-96q-14 0 -24 10
t-10 24v99q0 14 10 24t24 10h96q14 0 24 -10t10 -24v-99q0 -14 -10 -24t-24 -10zM205 354q-7 0 -11.5 -5t-4.5 -11v-99q0 -6 4.5 -11t11.5 -5h96q7 0 11.5 5t4.5 11v99q0 6 -4.5 11t-11.5 5h-96zM491 205h-96q-14 0 -24 10t-10 25v97q0 15 10 25t24 10h96q14 0 24 -10
t10 -25v-97q0 -15 -10 -25t-24 -10zM395 354q-7 0 -11.5 -5t-4.5 -12v-97q0 -7 4.5 -12t11.5 -5h96q7 0 11.5 5t4.5 12v97q0 7 -4.5 12t-11.5 5h-96zM697 402h-72q-9 0 -15.5 6.5t-6.5 15.5v74q0 9 6.5 15.5t15.5 6.5h72q9 0 15.5 -6.5t6.5 -15.5v-74q0 -9 -6.5 -15.5
t-15.5 -6.5zM625 503q-5 0 -5 -5v-74q0 -4 5 -4h72q5 0 5 4v74q0 5 -5 5h-72zM822 402h-64q-11 0 -18.5 8t-7.5 19v64q0 11 7.5 19t18.5 8h64q11 0 18.5 -7.5t7.5 -19.5v-64q0 -11 -7.5 -19t-18.5 -8zM758 503q-9 0 -9 -10v-64q0 -9 9 -9h64q9 0 9 9v64q0 10 -9 10h-64z
M780 -25q-7 0 -12.5 5.5t-5.5 12.5v191q0 5 -3.5 9t-8.5 4h-67q-5 0 -8.5 -4t-3.5 -9v-120q0 -8 -5 -13t-12 -5t-12 5t-5 13v120q0 20 13.5 34t32.5 14h67q20 0 33.5 -14t13.5 -34v-191q0 -7 -5 -12.5t-12 -5.5z" />
    <glyph glyph-name="message" unicode="&#xe612;" 
d="M607 69h-38q-9 0 -9 -9q0 -20 -14 -34t-34 -14t-34 14t-14 34q0 9 -9 9h-38q-9 0 -9 -9q0 -42 31 -73t73 -31t73 31t31 73q0 9 -9 9zM694 438q2 -6 9 -6h1q8 2 8 9q-1 68 -38 118q-39 50 -103 63q-7 1 -10 -5.5t3 -11.5q91 -70 130 -167zM902 117q0 6 -2 11
q-6 46 -30.5 85t-62.5 65v163q0 92 -52.5 168t-138.5 108q-4 40 -34 67.5t-70 27.5t-70 -27.5t-34 -67.5q-86 -32 -138.5 -108t-52.5 -168v-163q-38 -26 -62.5 -65t-30.5 -85q-3 -8 -2 -16v-14q0 -9 9 -9h762q9 0 9 9v14v5zM567 673q19 -4 37 -12q66 -27 106.5 -88
t40.5 -132v-189q0 -6 5 -9q62 -31 83 -98h-654q20 67 83 98q5 3 5 9v189q0 82 52 147.5t132 84.5q7 2 7 9v26q0 19 14.5 33.5t34 14.5t33.5 -14.5t14 -33.5v-26q0 -7 7 -9z" />
    <glyph glyph-name="qiehuan" unicode="&#xe626;" 
d="M931 -128h-726v102h717v717h102v-726v-93h-93zM563 77v102h109l-300 341v-136h-116v205v102h102h205l-4 -121h-101l310 -335v149h102v-205v-102h-102h-205zM768 794h-665q2 -455 1 -666h306v-102h-410v102v666v55v47h768h70h32v-358h-102v256z" />
    <glyph glyph-name="shipin" unicode="&#xe61e;" 
d="M508 861q-96 0 -184 -37.5t-151 -100.5t-100.5 -151t-37.5 -184t37.5 -184t101 -151t151 -100.5t183.5 -37.5t183.5 37.5t151 101t101 151t37.5 183.5t-37.5 184t-100.5 151t-151 100.5t-184 37.5zM508 -14q-109 0 -202 53.5t-146.5 146.5t-53.5 202t53.5 202
t146.5 146.5t202 53.5t202 -53.5t146.5 -146.5t53.5 -202t-53.5 -202t-146.5 -146.5t-202 -53.5zM689 421l-244 141q-19 10 -38 -1t-19 -32v-283q0 -21 19 -32t38 0l244 140q18 12 18 34t-18 33z" />
    <glyph glyph-name="jingdian2" unicode="&#xe61f;" 
d="M426 214q-17 0 -56 52q-40 54 -56 60q-16 7 -26 -14q-7 -14 -26.5 -62t-29.5 -72v-18q0 -23 16.5 -39.5t39.5 -16.5h448q23 0 39.5 16.5t16.5 39.5v26q-6 14 -31 76t-44 100t-37 59q-18 19 -35 17.5t-37 -18.5t-37.5 -42t-37.5 -53.5t-37 -53t-35.5 -41t-34.5 -16.5z
M792 832h-560q-70 0 -119 -49t-49 -119v-560q0 -70 49 -119t119 -49h560q70 0 119 49t49 119v560q0 70 -49 119t-119 49zM848 104q0 -23 -16.5 -39.5t-39.5 -16.5h-560q-23 0 -39.5 16.5t-16.5 39.5v560q0 24 16.5 40t39.5 16h560q23 0 39.5 -16t16.5 -40v-560v0zM316 496
q35 0 59.5 24.5t24.5 59.5t-24.5 59.5t-59.5 24.5t-59.5 -24.5t-24.5 -59.5t24.5 -59.5t59.5 -24.5z" />
    <glyph glyph-name="zhuye" unicode="&#xe613;" horiz-adv-x="1152" 
d="M832 -128h-128q-13 0 -22.5 9.5t-9.5 22.5v320q0 13 -9.5 22.5t-22.5 9.5h-128q-13 0 -22.5 -9.5t-9.5 -22.5v-320q0 -13 -9.5 -22.5t-22.5 -9.5h-128q-53 0 -90.5 37.5t-37.5 90.5v288q0 13 -9.5 22.5t-22.5 9.5h-94q-53 0 -63.5 26.5t26.5 63.5l456 449q37 37 91 37
t91 -37l456 -449q38 -37 27 -63.5t-64 -26.5h-94q-13 0 -22.5 -9.5t-9.5 -22.5v-288q0 -53 -37.5 -90.5t-90.5 -37.5zM896 0v288q0 40 28 68t68 28h66l-436 429q-19 19 -46 19t-47 -19l-436 -429h67q40 0 68 -28t28 -68v-288q0 -26 19 -45t45 -19h96v288q0 40 28 68t68 28
h128q40 0 68 -28t28 -68v-288h96q27 0 45.5 19t18.5 45z" />
    <glyph glyph-name="qushi-copy" unicode="&#xe614;" horiz-adv-x="1182" 
d="M1142 -49q16 0 27.5 -11.5t11.5 -28t-11.5 -28t-27.5 -11.5h-1103q-16 0 -27.5 11.5t-11.5 28t11.5 28t27.5 11.5h158v236q0 16 11.5 27.5t28 11.5t28 -11.5t11.5 -27.5v-236h157v394q0 16 11.5 27.5t28 11.5t28 -11.5t11.5 -27.5v-394h157v315q0 16 11.5 27.5t28 11.5
t28 -11.5t11.5 -27.5v-315h158v512q0 16 11.5 27.5t27.5 11.5t27.5 -11.5t11.5 -27.5v-512h158zM726 416q-10 -10 -25 -11.5t-27 7.5l-208 160l-359 -337q-12 -11 -28 -10.5t-27.5 12.5t-11 28t12.5 28l383 359q10 10 24.5 11t26.5 -8l207 -161l306 312l-129 -15
q-16 -2 -29 8.5t-15 26.5t8.5 28.5t26.5 14.5l231 27q17 2 30.5 -10t13.5 -30v-208q0 -16 -11.5 -27.5t-28 -11.5t-28 11.5t-11.5 27.5v104z" />
    <glyph glyph-name="tousu2" unicode="&#xe615;" 
d="M780 832h-537q-62 0 -91 -28.5t-29 -90.5v-657q0 -62 29 -90.5t91 -28.5h537q62 0 91 28.5t29 90.5v657q0 62 -29 90.5t-91 28.5zM840 88q0 -47 -22.5 -69.5t-71.5 -22.5h-469q-49 0 -71.5 22.5t-22.5 69.5v593q0 48 22.5 70t71.5 22h469q49 0 71.5 -22t22.5 -70v-593z
M325 623h-45q-7 0 -7 -7v-45q0 -7 7 -7h45q7 0 7 7v45q0 7 -7 7zM743 205h-344q-7 0 -7 -7v-45q0 -7 7 -7h344q7 0 7 7v45q0 7 -7 7zM325 414h-45q-7 0 -7 -7v-45q0 -7 7 -7h45q7 0 7 7v45q0 7 -7 7zM325 205h-45q-7 0 -7 -7v-45q0 -7 7 -7h45q7 0 7 7v45q0 7 -7 7zM743 414
h-344q-7 0 -7 -7v-45q0 -7 7 -7h344q7 0 7 7v45q0 7 -7 7zM743 623h-344q-7 0 -7 -7v-45q0 -7 7 -7h344q7 0 7 7v45q0 7 -7 7z" />
    <glyph glyph-name="bilitu" unicode="&#xe62b;" 
d="M999 329l-417 127l-152 408l13 5q74 27 150 27q116 0 215 -57.5t156.5 -156.5t57.5 -215q0 -64 -19 -125zM603 479l377 -115q13 50 13 103q0 109 -53.5 201.5t-146 146t-200.5 53.5q-64 0 -127 -21zM473 -128q-95 0 -182.5 37.5t-150.5 100.5t-100.5 150t-37.5 183
q0 167 106.5 297t269.5 164l23 5l147 -395l394 -120l-4 -24q-27 -173 -158.5 -285.5t-306.5 -112.5zM366 744q-135 -37 -221 -149t-86 -252q0 -113 55.5 -208.5t151 -151t207.5 -55.5q148 0 261 91.5t144 234.5l-373 114zM999 452l1 -7l-298 -7l-1 8zM1006 552l1 -7
l-433 -24v7zM547 612v7l424 25l1 -7zM498 705v7l399 21v-7zM484 796v7l294 21l1 -7z" />
    <glyph glyph-name="tousu3" unicode="&#xe620;" horiz-adv-x="1040" 
d="M983 56h-318l339 340q16 16 16 39t-16 39l-348 348q-16 16 -39 16t-39 -16l-546 -545q-16 -16 -16 -39t16 -39l143 -143h-134q-17 0 -29 -12t-12 -29v-43q0 -17 12 -29t29 -12h942q17 0 29 12t12 29v43q0 17 -12 29t-29 12zM535 -5h-230l-62 61l-176 177q-5 5 0 10
l545 545q5 5 10 0l348 -348q5 -5 0 -10l-373 -374zM619 729.5q-11 1.5 -19.5 -5.5t-10.5 -18l-50 -397l-392 -44q-11 -1 -18 -9.5t-6 -19.5q2 -10 9.5 -17t17.5 -7h3l413 47q9 1 15.5 7.5t7.5 15.5l53 418q1 11 -5.5 19.5t-17.5 10z" />
    <glyph glyph-name="hongjiuchengicondizhi" unicode="&#xe621;" 
d="M983 69q0 -44 -68 -77t-170.5 -49t-221 -16t-221 16t-170.5 49t-68 77q0 29 27.5 53t73 39t81 23t73.5 14q8 2 15.5 -2.5t9.5 -13.5q2 -8 -2.5 -15.5t-13.5 -9.5l-2 -0.5l-2 -0.5q-46 -6 -84 -15.5t-62.5 -18.5t-41.5 -19t-24.5 -18.5t-7.5 -15.5q0 -21 50 -43.5
t149 -39.5t219.5 -17t219.5 17t148.5 39.5t49.5 43.5q0 7 -7 15.5t-24.5 18.5t-42 19.5t-63 18.5t-84.5 15q-9 1 -14.5 7.5t-5.5 14.5q0 9 6.5 14.5t15.5 5.5h3q38 -5 75 -13t82.5 -23t73.5 -39t28 -54v0zM523 788q97 0 164.5 -68t67.5 -165q0 -50 -19.5 -108t-46 -104.5
t-62.5 -94.5t-59.5 -75t-45.5 -49q-22 24 -44.5 49t-59 73.5t-62.5 94.5t-46 105t-20 110q0 96 68.5 164t164.5 68v0zM509 80l14 -14l15 14q13 12 19 18.5t36.5 41t52 62.5t53 75t51 89t34 93.5t14.5 96.5q-3 114 -84.5 192.5t-195.5 76.5q-110 -2 -188.5 -80.5
t-80.5 -188.5q0 -64 26.5 -137t61 -127.5t77 -106.5t63.5 -73.5t32 -31.5zM523 679q-53 0 -91 -38t-38 -91.5t38 -91.5t91.5 -38t91.5 38t38 91v0q0 53 -38 91.5t-92 38.5zM523 460q-36 0 -61.5 26t-25.5 62q0 37 25.5 62.5t62 25.5t62 -26t25.5 -62v0q0 -36 -25.5 -62
t-62.5 -26z" />
    <glyph glyph-name="zixun1" unicode="&#xe616;" 
d="M552 253l-217 -72l73 217v1h1q360 361 361 361l36 36l72 72l145 -144zM390 235l108 36l-72 73zM806 724l-344 -344l72 -73l344 344zM842 760l72 -73l37 37l-73 72zM54 -49h768v461h51v-512h-870v819h563v-51h-512v-717z" />
    <glyph glyph-name="xiajiantou" unicode="&#xe67e;" 
d="M867 365l-313 -315q-9 -11 -22 -16h-1q-7 -3 -16 -3q-1 0 -1.5 -0.5t-1.5 -0.5t-2 0.5t-2 0.5q-5 0 -10 2q-5 1 -11 5q-2 1 -6 4q-1 0 -3 1.5t-3 2.5l-318 319q-15 15 -15 37t15 37t37 15t37 -15l229 -229v511q0 22 15.5 37.5t37.5 15.5t37.5 -15.5t15.5 -37.5v-510
l227 228q15 15 37 15t37 -15t15 -37t-15 -37z" />
    <glyph glyph-name="shangsanjiao" unicode="&#xe619;" 
d="M264 291q-6 0 -7.5 3.5t2.5 7.5l244 293q9 11 18 0l244 -293q4 -4 2.5 -7.5t-7.5 -3.5h-496v0z" />
    <glyph glyph-name="ticket" unicode="&#xe634;" horiz-adv-x="1085" 
d="M1024 -7h-723q0 24 -17.5 42t-42.5 18t-42.5 -18t-17.5 -42h-121q-25 0 -42.5 17.5t-17.5 42.5v662q0 25 17.5 43t42.5 18h121q0 -25 17.5 -43t42.5 -18t42.5 18t17.5 43h723q25 0 42.5 -18t17.5 -43v-662q0 -25 -17.5 -42.5t-42.5 -17.5zM1024 715h-679v0
q-16 -27 -43.5 -43.5t-60.5 -16.5t-60.5 16.5t-43.5 43.5h-77v-662h77q16 27 43.5 43.5t60.5 16.5t60.5 -16.5t43.5 -43.5h679v662zM497 505h391q7 0 11.5 -4.5t4.5 -11.5v-30q0 -6 -4.5 -10.5t-11.5 -4.5h-391q-6 0 -10.5 4.5t-4.5 10.5v30q0 7 4.5 11.5t10.5 4.5zM497 324
h391q7 0 11.5 -4.5t4.5 -10.5v-30q0 -7 -4.5 -11t-11.5 -4h-391q-6 0 -10.5 4t-4.5 11v30q0 6 4.5 10.5t10.5 4.5zM256 173h-30q-6 0 -10.5 4.5t-4.5 10.5v151q0 6 4.5 10.5t10.5 4.5h30q6 0 10.5 -4.5t4.5 -10.5v-151q0 -6 -4.5 -10.5t-10.5 -4.5zM256 414h-30
q-6 0 -10.5 4.5t-4.5 10.5v151q0 6 4.5 10.5t10.5 4.5h30q6 0 10.5 -4.5t4.5 -10.5v-151q0 -6 -4.5 -10.5t-10.5 -4.5z" />
    <glyph glyph-name="ziyuan" unicode="&#xe617;" 
d="M957 385q0 90 -35.5 173t-95.5 142.5t-142.5 95t-173.5 35.5t-173.5 -35.5t-142 -95t-95 -142.5t-35.5 -173q0 -112 51.5 -209t141 -158.5t198.5 -75.5q19 -4 45 -4q8 0 15 1q90 1 171.5 36.5t141 95t94.5 141.5t35 173v0v0zM893 378q-2 33 -9 66q1 11 0 21q9 -40 9 -80
v-7v0v0zM128 385q0 40 8 79q12 -15 35 -12.5t30 21.5q4 -3 16.5 -8t18 -10t5.5 -15q0 -25 0.5 -40.5t4 -36t10 -32.5t18.5 -21t30 -9q2 0 9.5 -4t20 -17t19.5 -31q2 -6 9 -6t19.5 3t20.5 3q5 0 5 -5.5t-2.5 -22.5t-2.5 -33q0 -12 9.5 -27.5t21.5 -27.5t27.5 -25.5t21.5 -18
l10 -7.5v0q-1 -39 3 -67q-29 0 -51 -7q-136 24 -226 130t-90 247v0v0zM604 14q-3 17 -26 11q8 35 11.5 48.5t12 30.5t21.5 28q18 17 17 32.5t-14 25t-27 7.5q-8 -1 -11.5 3t-4 10t-4 11.5t-9.5 5.5q-11 1 -37 25.5t-40 31.5l-20 13.5t-35 14.5q-5 0 -13 -1.5t-14.5 -3.5
t-12.5 -3.5t-9 -0.5t-3 5q0 16 -6 94q0 2 -1 5q0 1 2 0q8 -2 21 -2q8 -1 12 15.5t11 16.5q7 1 31.5 -5t29.5 -3q2 1 7 -7q3 -4 10 -18q25 -45 35 -45q11 -1 11 46q0 4 -1.5 15.5t-1.5 21t3 15.5q8 13 17.5 29.5t15.5 27t11.5 21t7.5 16.5t1.5 7.5t-8.5 3t-20.5 0.5t-22.5 -5
q-4 -1 -3.5 -8.5t-5.5 -8.5q-21 -4 -37.5 -0.5t-24.5 12.5t-2 19q5 7 20.5 11t28.5 11.5t15 25.5q3 28 6 68q30 -5 35 19q5 27 -25 47q-18 11 -43 14q122 -2 220 -73t137 -184q-4 4 -9 4q-15 37 -42 29q-23 -8 -27 -38q-1 -14 4 -28q-128 -99 -45 -176q23 -21 48 -63
q-7 -21 11 -20q25 1 52 37q8 11 14 24q-28 -98 -101.5 -169t-172.5 -96v0v0z" />
    <glyph glyph-name="zhusu" unicode="&#xe63c;" horiz-adv-x="1069" 
d="M1027 -31h-33v497q0 41 -29 70t-70 29h-67q-13 0 -23 -10t-10 -23.5t10 -23t23 -9.5h67q13 0 23 -10t10 -23v-497h-199v828q0 41 -29 70t-70 29h-464q-41 0 -70.5 -29t-29.5 -70v-828h-33q-14 0 -23.5 -10t-9.5 -23.5t9.5 -23t23.5 -9.5h994q14 0 23.5 9.5t9.5 23
t-9.5 23.5t-23.5 10v0zM133 -31v828q0 13 9.5 23t23.5 10h464q13 0 23 -10t10 -23v-828h-530v0zM497 565h-199q-14 0 -23.5 -10t-9.5 -23.5t9.5 -23t23.5 -9.5h199q14 0 23.5 9.5t9.5 23t-9.5 23.5t-23.5 10zM497 730h-199q-14 0 -23.5 -9.5t-9.5 -23t9.5 -23.5t23.5 -10
h199q14 0 23.5 10t9.5 23.5t-9.5 23t-23.5 9.5zM497 399h-199q-14 0 -23.5 -9.5t-9.5 -23.5t9.5 -23.5t23.5 -9.5h199q14 0 23.5 9.5t9.5 23.5t-9.5 23.5t-23.5 9.5zM497 234h-199q-14 0 -23.5 -10t-9.5 -23.5t9.5 -23.5t23.5 -10h199q14 0 23.5 10t9.5 23.5t-9.5 23.5
t-23.5 10v0z" />
    <glyph glyph-name="basedata" unicode="&#xe64e;" 
d="M325.5 636q-80.5 0 -137 -56.5t-56.5 -136t56.5 -136t137 -56.5t137 56.5t56.5 136t-56.5 136t-137 56.5zM325.5 308q-56.5 0 -96.5 40t-40 96t40 95.5t96.5 39.5t96.5 -39.5t40 -95.5t-40 -96t-96.5 -40zM680.5 301q-54.5 0 -93.5 -38.5t-39 -93t39 -93t93.5 -38.5
t93.5 38.5t39 93t-39 93t-93.5 38.5zM680.5 80q-37.5 0 -63.5 26.5t-26 63t26 63t63.5 26.5t63.5 -26.5t26 -63t-26 -63t-63.5 -26.5zM791.5 714q-44.5 0 -76 -31t-31.5 -75.5t31.5 -75.5t76 -31t76 31t31.5 75.5t-31.5 75.5t-76 31zM791.5 524q-34.5 0 -59 24.5t-24.5 59
t24.5 58.5t59 24t59 -24t24.5 -58.5t-24.5 -59t-59 -24.5zM892 895h-760q-53 0 -91 -37.5t-38 -90.5v-762q0 -53 38 -90.5t91 -37.5h760q54 0 91.5 37.5t37.5 90.5v762q0 53 -37.5 90.5t-91.5 37.5zM964 70q0 -58 -25 -93.5t-81 -35.5h-692q-56 0 -81 35.5t-25 93.5v646
q0 58 25 93.5t81 35.5h692q56 0 81 -35.5t25 -93.5v-646zM480 343l-22 -27l122 -100l22 28zM693 596l-194 -64l12 -34l193 64z" />
    <glyph glyph-name="vr01" unicode="&#xe627;" horiz-adv-x="1026" 
d="M792.5 430q10.5 18 10.5 39q0 31 -20 51.5t-64 20.5h-123v-146h111q35 0 55 8.5t30.5 26.5zM551 894.5q-104 7.5 -201.5 -26t-171 -96.5t-120.5 -155t-55 -195.5t25.5 -201t97 -171t155 -121t195.5 -55t201.5 26t171 96.5t121 155t55 195.5t-26 201t-97 171t-155 121
t-195.5 55zM346 149h-53l-151 440h56l101 -319q12 -39 21 -72q8 36 20 72l105 319h53zM823 149l-52 92q-22 39 -36.5 60t-26 29.5t-23.5 12.5q-9 2 -29 2h-60v-196h-51v440h172q52 0 79 -12t43.5 -42t16.5 -66q0 -47 -27 -79t-83 -41q21 -11 31 -21q23 -24 43 -59l68 -120
h-65v0z" />
    <glyph glyph-name="chahao" unicode="&#xe638;" 
d="M934 72q23 -23 23 -55.5t-23 -55.5t-55.5 -23t-55.5 23l-313 313l-313 -313q-23 -23 -55.5 -23t-55.5 23t-23 55.5t23 55.5l313 313l-313 313q-23 23 -23 55.5t23 55.5t55.5 23t55.5 -23l313 -313l313 313q23 23 55.5 23t55.5 -23t23 -55.5t-23 -55.5l-313 -313z" />
    <glyph glyph-name="zhi" unicode="&#xe657;" 
d="M271 246h41v-31h-41v31zM271 548h41v-31h-41v31zM184 246h41v-31h-41v31zM358 548h41v-31h-41v31zM184 548h41v-31h-41v31zM353 246h46v-31h-46v31zM748.5 581q-24.5 0 -38.5 -30t-14 -70t14 -70t38.5 -30t38.5 30t14 70q-1 41 -14.5 70.5t-38 29.5zM748.5 411
q-3.5 0 -9 7.5t-10 24.5t-4.5 38q0 22 4.5 39t10 24.5t9.5 7.5t9 -7.5t9.5 -24.5t4.5 -39q0 -21 -4.5 -38t-10 -24.5t-9 -7.5zM749 778h-485q-57 0 -96.5 -84.5t-41.5 -207.5v0v-517v0q1 -6 4 -8q4 -5 10 -5t10 5l51 48l51 -48q1 0 2 -0.5t1 -1.5q1 0 1.5 -0.5l0.5 -0.5
q3 -1 6 -1q1 0 5 1q1 0 2 1q2 1 2 2l52 48l51 -48q1 -1 3 -2q0 -1 0.5 -1h0.5q3 -2 6 -2q2 0 6 2l1 1q2 0 3 1l51 48l52 -48q1 -1 3 -1l1 -1q3 -2 6 -2q1 0 6 2l1 1q2 0 3 1l51 48l52 -48q4 -4 9 -4q8 0 11 4l3 8v0v215h106q54 0 93 76.5t44 189.5q1 10 1 32
q-1 125 -41.5 211t-97.5 86zM617 548h-18v-31h16q-1 -20 -1 -31v0v-240h-15v-31h15v-211l-37 35q-1 1 -2 1l-1 0.5t-2 0.5q-1 1 -2 1h-3h-2q-2 0 -3 -1l-1 -0.5l-1 -0.5q-1 0 -1.5 -0.5l-0.5 -0.5l-52 -48l-51 48l-1 0.5l-1 0.5l-1 0.5l-1 0.5q-1 1 -3 1h-3h-3l-1 -0.5
l-1 -0.5q-1 0 -1.5 -0.5t-1.5 -0.5l-1 -0.5l-1 -0.5l-51 -48l-51 48l-1 0.5l-1 0.5l-1.5 1.5t-1.5 0.5h-2t-1.5 0.5t-1.5 0.5q-2 0 -3 -1h-1.5h-1.5l-1 -0.5t-1 -1.5h-1t-1 -1l-51 -48l-52 48q0 1 -0.5 1.5t-1.5 0.5l-1 0.5l-1 0.5q-1 1 -3 1l-1 0.5l-1 0.5q-2 0 -3 -1
q-1 0 -1.5 -0.5t-1.5 -0.5l-1 -0.5l-1 -0.5q-1 0 -1.5 -0.5t-1.5 -0.5l-38 -36v212v0v30v0v241h-1q0 10 1 31v0v23q12 92 44.5 149.5t67.5 57.5h430q-28 -27 -49 -81t-28 -119zM645 215v87q15 -53 50 -87h-50zM857 453q-4 -102 -36.5 -167.5t-70.5 -65.5q-41 0 -74 74.5
t-33 187t33 187t74 74.5q38 0 70.5 -66t36.5 -167q1 -9 1 -29q0 -10 -1 -28zM440 246h46v-31h-46v31zM527 548h46v-31h-46v31zM440 548h46v-31h-46v31zM527 246h46v-31h-46v31z" />
    <glyph glyph-name="tubiao61" unicode="&#xe641;" 
d="M512 -128q-104 0 -199 40.5t-163.5 109t-109 163.5t-40.5 199t40.5 199t109 163.5t163.5 109t199 40.5t199 -40.5t163.5 -109t109 -163.5t40.5 -199t-40.5 -199t-109 -163.5t-163.5 -109t-199 -40.5zM512 866q-98 0 -187 -38.5t-153.5 -103t-103 -153.5t-38.5 -187
t38.5 -187t103 -153.5t153.5 -103t187 -38.5t187 38.5t153.5 103t103 153.5t38.5 187t-38.5 187t-103 153.5t-153.5 103t-187 38.5zM721 453v-86q-1 -21 -12.5 -33t-33.5 -12q-25 -1 -42 0q-20 1 -31.5 12.5t-11.5 30.5q-1 49 0 176q0 7 2 15q14 40 90 28q38 -6 39 -48
v-41.5v-41.5zM678 364v178h-45v-178h45zM549 215q-15 -14 -44.5 -39.5t-45.5 -39.5q0 30 1 31q2 14 -4 19t-20 6q-119 8 -200 49q-35 17 -62 44q-20 20 -20 44.5t19 46.5q28 35 86 55q-50 -31 -52 -33q-27 -20 -27 -44t26 -45q50 -38 155 -57q6 -1 97 -11q2 29 3 51
q18 -16 49 -43.5t39 -33.5zM329 364h44v68q-16 0 -43 2v39q6 0 13 0.5t15.5 1t14.5 0.5v68h-43q-5 -17 -10.5 -19.5t-31.5 0.5q-7 28 5.5 44.5t40.5 16.5h36q44 -3 46 -46q1 -38 -1 -56q0 -2 -10 -29q10 -35 11 -38q2 -17 0 -47q-1 -16 -7 -26q-8 -16 -38 -22t-56 3
q-18 6 -24.5 19t-4.5 38q22 6 30.5 3t12.5 -20zM536 585q-28 -65 -47 -111h33q45 -2 45 -46q1 -31 0 -64q-1 -41 -43 -42q-18 -1 -41 0q-40 0 -46 45q-6 51 7 100.5t41 106.5q5 9 13.5 11t17.5 0t20 0zM480 365h44v66h-44v-66zM572 194l-2 8q-3 28 2 34t33 11q78 15 145 35
q26 8 56 34q20 18 20 37.5t-20 38.5q-9 8 -27 20t-22 15q61 -25 84 -63q24 -39 -3 -70q-25 -29 -55 -46q-39 -24 -107 -40.5t-104 -13.5zM820.5 588q-19.5 0 -33.5 -13.5t-14 -33.5t14 -34t33.5 -14t33.5 14t14 34t-14 33.5t-33.5 13.5zM820.5 518q-9.5 0 -16 6.5t-6.5 16
t6.5 16.5t16 7t16 -7t6.5 -16.5t-6.5 -16t-16 -6.5z" />
    <glyph glyph-name="vr" unicode="&#xe628;" 
d="M1023 384q0 -104 -40.5 -198.5t-109 -163t-163 -109t-198.5 -40.5t-198.5 40.5t-163 109t-109 163t-40.5 198.5t40.5 198.5t109 163t163 109t198.5 40.5t198.5 -40.5t163 -109t109 -163t40.5 -198.5zM512 833q-91 0 -174.5 -35.5t-143.5 -95.5t-95.5 -143.5t-35.5 -174.5
t35.5 -174.5t95.5 -143.5t143.5 -95.5t174.5 -35.5t174.5 35.5t143.5 95.5t95.5 143.5t35.5 174.5t-35.5 174.5t-95.5 143.5t-143.5 95.5t-174.5 35.5zM788 617h-547q-47 0 -80.5 -33.5t-33.5 -80.5v-227q0 -47 33.5 -80t80.5 -33h208l65 123l65 -123h209q47 0 80 33t33 80
v227q0 47 -33 80.5t-80 33.5zM338.5 331q-29.5 0 -50.5 21t-21 51t21 51t50.5 21t51 -21t21.5 -51t-21.5 -51t-51 -21zM686.5 331q-29.5 0 -50.5 21t-21 51t21 51t50.5 21t51 -21t21.5 -51t-21.5 -51t-51 -21z" />
    <glyph glyph-name="zixun11" unicode="&#xe639;" 
d="M511 -56q-161 0 -284 105q-28 19 -44 43q-111 125 -111 291q0 90 34.5 171t93.5 140t140.5 94t171 35t170.5 -35t140 -94t94 -140t35 -170.5t-35 -171t-94 -140.5t-140 -93.5t-171 -34.5v0zM511 -12v0v0v0v0zM511 779q-107 0 -198 -53t-144 -144t-53 -199q0 -128 76 -232
q90 -32 182 -32q40 0 96 22t111.5 44t93.5 22q88 0 170 -35q62 97 62 211q0 108 -53 199t-144 144t-199 53v0zM775 251h-44l-22 88l-22 -88h-44l-44 220h44l25 -122l19 78h44l20 -78l24 122h44zM423 251v220h132v-44h-88v-44h88v-44h-88v-44h88v-44h-132zM336 251l-88 147
v-147h-44v220h44l88 -146v146h43v-220h-43z" />
    <glyph glyph-name="chuan" unicode="&#xe666;" 
d="M254 7l-149 409l-10 -26l437 231l-21 1l417 -244l-8 27l-96 -217q-4 -8 -0.5 -16t11.5 -11.5t16 -0.5t12 11l95 217q4 7 1.5 14.5t-9.5 12.5l-417 243q-11 7 -20 1l-437 -231q-17 -9 -10 -26l148 -409q3 -9 11 -12.5t16 -0.5q9 3 12.5 11t0.5 16zM501 618v-576
q0 -8 6.5 -14.5t15.5 -6.5t15 6.5t6 14.5v576q0 9 -6 15.5t-15 6.5t-15.5 -6.5t-6.5 -15.5zM234 492v212l-21 -22h597l-21 21v-233q0 -9 6.5 -15.5t15 -6.5t15 6.5t6.5 15.5v233q0 9 -6.5 15.5t-15.5 6.5l-597 1q-9 0 -15.5 -6.5t-6.5 -15.5v-212q0 -9 6.5 -15t15.5 -6t15 6
t6 15zM51 11q19 -15 42 -27q52 -27 98 -27q6 0 9 1q19 2 47 17q9 5 21 13q3 2 7 4.5l4 2.5l11 8q46 29 82 36t86 -6q60 -17 104 -38l13 -6t27.5 -12.5t19.5 -8.5q30 -12 67 -12q20 0 37.5 5.5t64.5 26.5q62 27 99 29t79 -24q8 -5 16.5 -3t13.5 9t3 16t-9 14
q-34 22 -67.5 28.5t-68.5 -1t-83 -28.5q-43 -19 -57.5 -24t-27.5 -5q-29 0 -52 9q-37 15 -57 26q-50 23 -109 40q-61 16 -105.5 7.5t-98.5 -43.5q-48 -30 -54.5 -33.5t-17.5 -5.5h-4q-35 0 -78 23q-15 7 -27 15q-3 2 -6 4.5l-3 2.5q-7 5 -16 4t-14 -8q-5 -6 -4 -15t8 -14z
M362 711v78l-21 -22h362l-21 22v-86q0 -8 6.5 -14.5t15 -6.5t15 6.5t6.5 14.5v86q0 9 -6.5 15t-15.5 6h-362q-9 0 -15.5 -6t-6.5 -15v-78q0 -9 6.5 -15.5t15.5 -6.5q9 1 15 7t6 15z" />
  </font>
</defs>
</svg>
